<svg width="106" height="34" viewBox="0 0 106 34" fill="none" xmlns="http://www.w3.org/2000/svg">
<path d="M4.70592 6.38L6.21392 9.006C6.08392 10.462 5.43392 11.138 5.43392 12.438C5.43392 13.582 6.47392 13.972 8.13792 13.972C9.80192 13.972 10.8419 13.582 10.8419 12.438C10.8419 11.112 10.1919 10.462 10.0619 9.006L11.7259 6.094C12.5579 4.638 14.5339 3.676 15.1579 2.506C15.7559 1.362 14.9759 0.608 13.1039 0.608C11.3619 0.608 10.3739 1.154 10.0879 1.934C9.72392 2.948 11.2839 4.248 10.3219 5.912C10.3219 5.912 9.95792 6.562 9.56792 7.212L8.13792 4.664C7.53992 3.598 7.77392 3.052 7.20192 2.142C6.49992 1.024 5.35592 0.608 3.56192 0.608C1.76792 0.608 0.675922 1.362 1.37792 2.48C2.31392 3.936 3.71792 4.56 4.70592 6.38ZM16.9064 13.972C19.7664 13.972 22.0804 12.048 22.0804 9.63C22.0804 7.238 19.7664 5.288 16.9064 5.288C14.0464 5.288 11.7324 7.238 11.7324 9.63C11.7324 12.048 14.0464 13.972 16.9064 13.972ZM16.9064 6.588C17.5044 6.588 17.9724 7.966 17.9724 9.63C17.9724 11.32 17.5044 12.672 16.9064 12.672C16.3344 12.672 15.8664 11.32 15.8664 9.63C15.8664 7.966 16.3344 6.588 16.9064 6.588ZM22.8324 12.438C22.8324 13.582 23.7164 13.972 25.3804 13.972C27.0444 13.972 27.9284 13.582 27.9284 12.438C27.9284 11.32 27.1224 11.19 27.1224 9.448C27.1224 8.928 27.2784 7.966 27.7984 7.966C28.6044 7.966 29.6704 9.552 30.8144 9.552C31.7244 9.552 32.6344 8.798 32.8944 7.472C33.1024 6.406 32.5304 5.288 31.4644 5.288C29.9304 5.288 29.0204 6.458 27.9024 6.64C27.9024 6.588 27.9284 6.51 27.9284 6.432C27.9284 3.936 22.6504 6.068 22.6504 7.602C22.6504 8.59 23.6384 8.876 23.6384 9.994C23.6384 11.528 22.8324 11.424 22.8324 12.438ZM33.2891 12.438C33.2891 13.582 34.1731 13.972 35.8371 13.972C37.4751 13.972 38.3591 13.582 38.3591 12.438C38.3591 11.658 38.1251 11.086 37.9171 10.462L38.2551 10.176C38.6451 11.06 38.6711 11.788 39.2171 12.568C39.9971 13.66 40.5951 13.972 42.2591 13.972C43.9231 13.972 45.7171 12.646 44.9891 11.476C44.1571 10.15 42.4671 10.02 41.5051 8.564L41.2191 8.148C42.3111 7.758 43.1691 7.81 44.0271 6.978C44.9111 6.068 43.7671 5.288 42.5191 5.288C41.5311 5.288 40.5691 5.418 39.8671 6.146C39.1391 6.9 39.4771 7.498 38.0731 8.642L37.6051 9.032C37.5791 8.876 37.5791 8.72 37.5791 8.564V6.042C37.5791 4.274 38.3591 3.598 38.3591 2.168C38.3591 1.024 37.4751 0.608 35.8371 0.608C34.1731 0.608 33.2891 1.024 33.2891 2.168C33.2891 3.598 34.0691 4.274 34.0691 6.042V8.564C34.0691 10.332 33.2891 11.008 33.2891 12.438ZM50.5616 7.316C52.5116 8.902 56.2036 9.656 56.0996 11.84C56.0476 12.412 55.7616 12.672 55.3196 12.672C52.7196 12.62 52.5636 9.162 50.6396 9.11C49.0276 9.084 48.4556 12.724 50.5356 13.036C51.8616 13.244 52.0956 13.92 54.7996 13.972C59.6356 14.102 62.6256 10.28 60.1556 7.732C60.0256 7.576 59.8436 7.446 59.6616 7.29C57.7376 5.678 54.0196 4.95 54.1496 2.766C54.1756 2.194 54.4616 1.908 54.9036 1.934C57.5036 1.986 57.6856 5.444 59.5836 5.47C61.2216 5.522 61.8716 1.856 59.6876 1.57C58.3616 1.388 58.1536 0.685999 55.4236 0.608C50.6136 0.504 47.5976 4.326 50.0676 6.848L50.5616 7.316ZM62.5139 7.472H62.8779V11.268C62.8779 13.14 64.5419 13.972 65.9199 13.972C67.0119 13.972 68.5459 13.66 69.2219 12.49C69.8459 11.476 68.7799 11.164 68.2079 11.424C66.8039 12.1 66.5699 11.45 66.5699 10.566V7.472H67.9219C68.5199 7.472 69.0139 6.978 69.0139 6.38C69.0139 5.782 68.5199 5.288 67.9219 5.288H67.1419C67.2719 5.002 67.3759 4.716 67.3759 4.352C67.3759 3.52 66.7779 3.208 65.9979 3.208C64.6719 3.208 63.5539 5.288 62.8779 5.288H62.5139C61.9159 5.288 61.4219 5.782 61.4219 6.38C61.4219 6.978 61.9159 7.472 62.5139 7.472ZM86.2563 8.512C86.2563 6.978 84.1503 5.288 81.4983 5.288C80.8743 5.288 80.2763 5.366 79.7043 5.548C79.3403 5.392 78.8983 5.288 78.3523 5.288C76.8443 5.288 75.8043 5.678 75.1543 6.25C74.8943 4.04 69.9023 6.094 69.9023 7.602C69.9023 8.59 70.8903 8.876 70.8903 9.994C70.8903 11.528 70.0843 11.424 70.0843 12.438C70.0843 13.582 70.9683 13.972 72.6323 13.972C74.2963 13.972 75.1803 13.582 75.1803 12.438C75.1803 11.32 74.3743 11.19 74.3743 9.448C74.3743 7.68 77.0263 6.25 77.4163 6.562C77.4943 6.614 77.4683 6.77 77.3903 6.978C76.7143 7.706 76.3243 8.642 76.3243 9.63C76.3243 12.048 78.6383 13.972 81.4983 13.972C83.5263 13.972 85.2943 13.01 86.1263 11.58C86.6463 10.67 85.1383 10.41 84.8263 10.982C84.4623 11.632 83.3443 11.736 82.3303 11.346C82.9543 10.046 86.2563 10.488 86.2563 8.512ZM81.2903 10.722C80.6403 10.202 80.1723 9.396 80.1723 8.356C80.1723 6.224 82.4603 6.146 82.4603 7.108C82.4603 7.94 81.4203 9.5 81.2903 10.722ZM92.2404 13.972C94.2684 13.972 96.0364 13.01 96.8684 11.58C97.3884 10.67 95.9064 10.41 95.5684 10.982C95.2044 11.632 94.1124 11.736 93.0724 11.346C93.6964 10.046 97.0244 10.488 97.0244 8.512C97.0244 6.978 94.8924 5.288 92.2404 5.288C89.3804 5.288 87.0664 7.238 87.0664 9.63C87.0664 12.048 89.3804 13.972 92.2404 13.972ZM93.2284 7.108C93.2284 7.94 92.1624 9.5 92.0324 10.722C91.3824 10.202 90.9144 9.396 90.9144 8.356C90.9144 6.224 93.2284 6.146 93.2284 7.108ZM98.4416 7.472H98.8056V11.268C98.8056 13.14 100.47 13.972 101.848 13.972C102.94 13.972 104.474 13.66 105.15 12.49C105.774 11.476 104.708 11.164 104.136 11.424C102.732 12.1 102.498 11.45 102.498 10.566V7.472H103.85C104.448 7.472 104.942 6.978 104.942 6.38C104.942 5.782 104.448 5.288 103.85 5.288H103.07C103.2 5.002 103.304 4.716 103.304 4.352C103.304 3.52 102.706 3.208 101.926 3.208C100.6 3.208 99.4816 5.288 98.8056 5.288H98.4416C97.8436 5.288 97.3496 5.782 97.3496 6.38C97.3496 6.978 97.8436 7.472 98.4416 7.472Z" fill="#1C193F"/>
<path d="M4.70592 6.38L2.06936 7.81128L2.08649 7.84283L2.10437 7.87396L4.70592 6.38ZM6.21392 9.006L9.20204 9.27279L9.28608 8.33153L8.81548 7.51204L6.21392 9.006ZM10.0619 9.006L7.45719 7.51758L6.99008 8.33503L7.07381 9.27279L10.0619 9.006ZM15.1579 2.506L17.805 3.91777L17.8108 3.90679L17.8166 3.89576L15.1579 2.506ZM10.0879 1.934L7.27129 0.901239L7.26778 0.91081L7.26434 0.920405L10.0879 1.934ZM10.3219 5.912L7.72472 4.41049L7.71444 4.42827L7.7044 4.44619L10.3219 5.912ZM9.56792 7.212L6.95177 8.68025L9.48127 13.1874L12.1404 8.75549L9.56792 7.212ZM8.13792 4.664L5.52149 6.13175L5.52177 6.13225L8.13792 4.664ZM7.20192 2.142L4.66125 3.7373L4.66201 3.73851L7.20192 2.142ZM1.37792 2.48L-1.16275 4.0753L-1.15425 4.08883L-1.14561 4.10227L1.37792 2.48ZM2.10437 7.87396L3.61237 10.5L8.81548 7.51204L7.30748 4.88604L2.10437 7.87396ZM3.22581 8.7392C3.19823 9.04811 3.13073 9.25184 2.94192 9.79424C2.7515 10.3413 2.43392 11.2457 2.43392 12.438H8.43392C8.43392 12.3303 8.44134 12.2467 8.60842 11.7668C8.77711 11.2822 9.09962 10.4199 9.20204 9.27279L3.22581 8.7392ZM2.43392 12.438C2.43392 13.1933 2.61123 14.0034 3.07902 14.7512C3.543 15.493 4.17537 15.9861 4.79072 16.3023C5.91361 16.8793 7.18294 16.972 8.13792 16.972V10.972C7.82953 10.972 7.62376 10.9532 7.49956 10.9328C7.36725 10.9111 7.40532 10.9 7.53313 10.9657C7.68047 11.0414 7.94884 11.2225 8.16583 11.5694C8.38661 11.9223 8.43392 12.2547 8.43392 12.438H2.43392ZM8.13792 16.972C9.0929 16.972 10.3622 16.8793 11.4851 16.3023C12.1005 15.9861 12.7328 15.493 13.1968 14.7512C13.6646 14.0034 13.8419 13.1933 13.8419 12.438H7.84192C7.84192 12.2547 7.88923 11.9223 8.11002 11.5694C8.327 11.2225 8.59537 11.0414 8.74272 10.9657C8.87053 10.9 8.9086 10.9111 8.77629 10.9328C8.65209 10.9532 8.44631 10.972 8.13792 10.972V16.972ZM13.8419 12.438C13.8419 11.2355 13.5268 10.3351 13.332 9.7789C13.1423 9.23746 13.0772 9.0439 13.05 8.7392L7.07381 9.27279C7.1766 10.4241 7.50155 11.2835 7.66938 11.7626C7.83203 12.2269 7.84192 12.3145 7.84192 12.438H13.8419ZM12.6667 10.4944L14.3307 7.58242L9.12119 4.60558L7.45719 7.51758L12.6667 10.4944ZM14.3307 7.58242C14.4379 7.39468 14.7037 7.1173 15.4513 6.48834C15.7554 6.23247 16.184 5.87766 16.5644 5.50866C16.9423 5.14202 17.4359 4.60975 17.805 3.91777L12.5109 1.09423C12.5679 0.987244 12.5805 1.01398 12.3865 1.20228C12.1948 1.38821 11.9604 1.58428 11.5885 1.89716C10.9841 2.4057 9.84591 3.33732 9.12119 4.60558L14.3307 7.58242ZM17.8166 3.89576C18.1416 3.27395 18.4185 2.44446 18.3432 1.4907C18.2627 0.470541 17.7985 -0.415392 17.107 -1.06249C15.8965 -2.1952 14.2542 -2.392 13.1039 -2.392V3.608C13.2386 3.608 13.3405 3.61486 13.4125 3.62311C13.4853 3.63146 13.5168 3.64001 13.5145 3.63939C13.5132 3.63902 13.4611 3.6251 13.3758 3.58176C13.29 3.53821 13.1555 3.45716 13.0074 3.31849C12.6701 3.00289 12.4058 2.51996 12.3618 1.96292C12.3231 1.47229 12.4732 1.16605 12.4992 1.11624L17.8166 3.89576ZM13.1039 -2.392C11.0435 -2.392 8.24297 -1.74881 7.27129 0.901239L12.9046 2.96676C12.8189 3.20034 12.69 3.38456 12.5615 3.51369C12.4383 3.6376 12.3397 3.68716 12.3205 3.69615C12.3028 3.70445 12.3484 3.68051 12.4845 3.6553C12.6193 3.63033 12.8221 3.608 13.1039 3.608V-2.392ZM7.26434 0.920405C6.86375 2.03633 7.07226 3.03186 7.21398 3.54622C7.28883 3.81792 7.37796 4.0655 7.43852 4.2309C7.51162 4.43058 7.54771 4.5239 7.58877 4.64471C7.66312 4.86346 7.64163 4.86576 7.64032 4.77365C7.63824 4.62715 7.68264 4.48327 7.72472 4.41049L12.9191 7.41351C14.0492 5.45886 13.5938 3.6678 13.2696 2.71379C13.1985 2.50473 13.1131 2.27833 13.0728 2.16814C13.0199 2.02367 13.0036 1.97124 12.9984 1.95246C12.9801 1.88589 13.1301 2.33867 12.9115 2.94759L7.26434 0.920405ZM10.3219 5.912C7.7044 4.44619 7.70442 4.44615 7.70444 4.44612C7.70445 4.44611 7.70447 4.44608 7.70448 4.44606C7.70449 4.44603 7.70451 4.44601 7.70451 4.446C7.70453 4.44597 7.70452 4.44598 7.70449 4.44604C7.70443 4.44614 7.70429 4.4464 7.70406 4.44681C7.7036 4.44763 7.70279 4.44906 7.70166 4.45108C7.6994 4.45512 7.69581 4.4615 7.69098 4.47008C7.68132 4.48725 7.66672 4.51316 7.64782 4.54656C7.60999 4.61343 7.55518 4.70994 7.48858 4.8261C7.35449 5.05998 7.17665 5.36649 6.99544 5.66851L12.1404 8.75549C12.3492 8.4075 12.5484 8.06402 12.6938 7.8104C12.7669 7.68281 12.8275 7.57619 12.8701 7.50087C12.8914 7.46318 12.9083 7.43323 12.9201 7.41231C12.9259 7.40185 12.9306 7.39364 12.9338 7.38784C12.9354 7.38494 12.9367 7.38264 12.9377 7.38096C12.9381 7.38012 12.9385 7.37944 12.9388 7.37891C12.939 7.37865 12.9391 7.37842 12.9392 7.37824C12.9393 7.37815 12.9393 7.37807 12.9393 7.378C12.9394 7.37796 12.9394 7.37791 12.9394 7.37789C12.9394 7.37785 12.9394 7.37781 10.3219 5.912ZM12.1841 5.74375L10.7541 3.19575L5.52177 6.13225L6.95177 8.68025L12.1841 5.74375ZM10.7544 3.19625C10.6763 3.05704 10.6602 3.00595 10.5846 2.67535C10.4849 2.23987 10.3131 1.45431 9.74183 0.545485L4.66201 3.73851C4.66275 3.73969 4.65989 3.68213 4.73575 4.01365C4.8356 4.45005 5.00159 5.20496 5.52149 6.13175L10.7544 3.19625ZM9.74259 0.546694C8.23615 -1.85245 5.79245 -2.392 3.56192 -2.392V3.608C4.26151 3.608 4.56291 3.69464 4.65905 3.73383C4.6931 3.74771 4.6849 3.74889 4.66169 3.72942C4.63839 3.70989 4.63957 3.70277 4.66125 3.7373L9.74259 0.546694ZM3.56192 -2.392C2.39551 -2.392 0.850623 -2.17238 -0.342427 -1.21604C-1.00972 -0.681149 -1.64183 0.160167 -1.80068 1.3027C-1.95578 2.41818 -1.59843 3.38144 -1.16275 4.0753L3.91859 0.884694C4.00327 1.01956 4.23387 1.46932 4.14215 2.12898C4.04667 2.81571 3.66807 3.2589 3.41027 3.46554C3.18367 3.64719 3.0363 3.66824 3.11048 3.64921C3.16554 3.63509 3.31358 3.608 3.56192 3.608V-2.392ZM-1.14561 4.10227C-0.439507 5.20066 0.464288 5.99825 0.949295 6.46194C1.48335 6.97252 1.80418 7.32279 2.06936 7.81128L7.34248 4.94872C6.61966 3.61721 5.74449 2.74548 5.09555 2.12506C4.39756 1.45774 4.13135 1.21534 3.90146 0.857727L-1.14561 4.10227ZM16.9064 16.972C20.9005 16.972 25.0804 14.1833 25.0804 9.63H19.0804C19.0804 9.82749 18.9961 10.1096 18.6407 10.407C18.2755 10.7126 17.674 10.972 16.9064 10.972V16.972ZM25.0804 9.63C25.0804 5.1132 20.913 2.288 16.9064 2.288V8.288C17.6636 8.288 18.2654 8.54741 18.636 8.8588C19.001 9.16556 19.0804 9.4514 19.0804 9.63H25.0804ZM16.9064 2.288C12.8999 2.288 8.73242 5.1132 8.73242 9.63H14.7324C14.7324 9.4514 14.8118 9.16556 15.1769 8.8588C15.5475 8.54741 16.1492 8.288 16.9064 8.288V2.288ZM8.73242 9.63C8.73242 14.1833 12.9124 16.972 16.9064 16.972V10.972C16.1389 10.972 15.5374 10.7126 15.1722 10.407C14.8168 10.1096 14.7324 9.82749 14.7324 9.63H8.73242ZM16.9064 9.588C15.8066 9.588 15.1812 8.9447 15.0107 8.73792C14.8273 8.51552 14.7971 8.37518 14.8295 8.46862C14.8847 8.62757 14.9724 9.03993 14.9724 9.63H20.9724C20.9724 8.55607 20.8262 7.44743 20.4978 6.50138C20.3385 6.04232 20.0792 5.45348 19.6398 4.9207C19.2134 4.40355 18.3052 3.588 16.9064 3.588V9.588ZM14.9724 9.63C14.9724 10.2376 14.8835 10.6464 14.8313 10.7959C14.8005 10.8841 14.8337 10.7374 15.0231 10.5108C15.2046 10.2936 15.828 9.672 16.9064 9.672V15.672C18.2839 15.672 19.19 14.8814 19.6274 14.3579C20.0727 13.8249 20.3351 13.2346 20.496 12.7736C20.8273 11.8246 20.9724 10.7124 20.9724 9.63H14.9724ZM16.9064 9.672C18.0391 9.672 18.6717 10.3464 18.8319 10.5437C19.0124 10.7661 19.0418 10.9051 19.0095 10.8109C18.9549 10.6518 18.8664 10.2359 18.8664 9.63H12.8664C12.8664 10.7141 13.012 11.8192 13.3344 12.7586C13.4906 13.2137 13.7442 13.7963 14.1733 14.325C14.5821 14.8286 15.4877 15.672 16.9064 15.672V9.672ZM18.8664 9.63C18.8664 9.04158 18.9537 8.62222 19.0112 8.4537C19.0451 8.35441 19.0186 8.48692 18.844 8.70489C18.6952 8.89065 18.0608 9.588 16.9064 9.588V3.588C15.466 3.588 14.5586 4.4576 14.1612 4.95373C13.738 5.48208 13.4872 6.06309 13.3326 6.5163C13.0131 7.45278 12.8664 8.55442 12.8664 9.63H18.8664ZM32.8944 7.472L35.8383 8.04924L35.8389 8.04653L32.8944 7.472ZM27.9024 6.64H24.9024V10.1679L28.3844 9.60102L27.9024 6.64ZM19.8324 12.438C19.8324 13.1106 19.9639 13.8735 20.3695 14.609C20.7838 15.3603 21.3807 15.895 22.0154 16.2508C23.1496 16.8867 24.4446 16.972 25.3804 16.972V10.972C25.0698 10.972 24.8836 10.9529 24.7882 10.9365C24.686 10.9189 24.7742 10.9189 24.9494 11.0172C25.1551 11.1325 25.427 11.3552 25.6236 11.7117C25.8114 12.0523 25.8324 12.3374 25.8324 12.438H19.8324ZM25.3804 16.972C26.3161 16.972 27.6111 16.8867 28.7454 16.2508C29.3801 15.895 29.977 15.3603 30.3913 14.609C30.7969 13.8735 30.9284 13.1106 30.9284 12.438H24.9284C24.9284 12.3374 24.9494 12.0523 25.1372 11.7117C25.3338 11.3552 25.6057 11.1325 25.8114 11.0172C25.9866 10.9189 26.0748 10.9189 25.9726 10.9365C25.8772 10.9529 25.691 10.972 25.3804 10.972V16.972ZM30.9284 12.438C30.9284 11.012 30.306 10.0232 30.1907 9.79994C30.1585 9.73772 30.1474 9.71279 30.1429 9.70208C30.1409 9.69736 30.1404 9.69572 30.1406 9.69617C30.1407 9.69667 30.1409 9.6972 30.1408 9.69701C30.1408 9.69678 30.1399 9.69374 30.1386 9.68712C30.1373 9.68042 30.1351 9.66848 30.1328 9.65047C30.1283 9.61471 30.1224 9.54972 30.1224 9.448H24.1224C24.1224 10.1228 24.2015 10.7278 24.3558 11.2887C24.5104 11.8507 24.716 12.2751 24.8601 12.5541C25.1478 13.1108 24.9284 12.746 24.9284 12.438H30.9284ZM30.1224 9.448C30.1224 9.4569 30.1225 9.43757 30.1262 9.41098C30.1306 9.37915 30.1305 9.40483 30.1053 9.47879C30.0908 9.52148 29.9965 9.80286 29.7115 10.1221C29.3747 10.4995 28.7186 10.966 27.7984 10.966V4.966C26.6181 4.966 25.7476 5.55278 25.2352 6.12676C24.7748 6.64264 24.544 7.19702 24.4254 7.54521C24.1846 8.25282 24.1224 8.97117 24.1224 9.448H30.1224ZM27.7984 10.966C27.0946 10.966 26.6952 10.6529 26.8259 10.7369C26.9105 10.7914 26.9991 10.8638 27.3389 11.1279C27.5996 11.3305 28.033 11.6636 28.5406 11.9397C29.0508 12.2171 29.8386 12.552 30.8144 12.552V6.552C31.2181 6.552 31.4437 6.68862 31.4071 6.66871C31.3679 6.64737 31.2699 6.58401 31.0204 6.39013C30.85 6.25768 30.4494 5.93362 30.0717 5.69071C29.7401 5.47739 28.9052 4.966 27.7984 4.966V10.966ZM30.8144 12.552C33.5058 12.552 35.3751 10.4119 35.8383 8.04924L29.9505 6.89476C29.9271 7.01408 29.9076 6.95204 30.0344 6.83189C30.1578 6.71491 30.4225 6.552 30.8144 6.552V12.552ZM35.8389 8.04653C36.072 6.85186 35.8954 5.5348 35.2225 4.4249C34.5075 3.24567 33.1902 2.288 31.4644 2.288V8.288C31.1865 8.288 30.8834 8.20959 30.6111 8.04445C30.3506 7.88648 30.1863 7.6915 30.0918 7.5356C29.9194 7.25119 29.9248 7.02614 29.9499 6.89747L35.8389 8.04653ZM31.4644 2.288C29.8928 2.288 28.7172 2.9085 28.0537 3.28265C27.6394 3.51628 27.5503 3.57877 27.357 3.67689C27.2227 3.74502 27.269 3.70362 27.4204 3.67898L28.3844 9.60102C29.0948 9.48538 29.674 9.22948 30.0728 9.02704C30.4125 8.8546 30.8563 8.59047 31.0011 8.50885C31.2299 8.37979 31.3444 8.32803 31.4173 8.30229C31.4481 8.29142 31.4628 8.28852 31.4655 8.28802C31.4671 8.28773 31.4671 8.28779 31.466 8.28789C31.4648 8.288 31.4641 8.288 31.4644 8.288V2.288ZM30.9024 6.64C30.9024 6.75505 30.8954 6.84892 30.8892 6.91164C30.883 6.9752 30.8759 7.02485 30.8716 7.0527C30.8673 7.08065 30.8637 7.10036 30.8634 7.10233C30.8631 7.10385 30.863 7.10411 30.8637 7.10019C30.8642 7.09776 30.8656 7.08984 30.867 7.08241C30.8721 7.05436 30.8872 6.97138 30.9002 6.86999C30.9134 6.76632 30.9284 6.61436 30.9284 6.432H24.9284C24.9284 6.28864 24.9401 6.17568 24.9485 6.1102C24.9565 6.04699 24.9652 6.00139 24.9638 6.00909C24.9635 6.01059 24.9633 6.01151 24.9622 6.0178C24.9613 6.0226 24.9597 6.03148 24.9579 6.04147C24.9545 6.0604 24.9481 6.09657 24.9413 6.14036C24.9346 6.18406 24.9254 6.24894 24.9178 6.32702C24.9102 6.40426 24.9024 6.51195 24.9024 6.64H30.9024ZM30.9284 6.432C30.9284 5.57405 30.6911 4.62451 30.0297 3.81068C29.3828 3.0147 28.5512 2.62061 27.8504 2.4405C26.565 2.11018 25.27 2.36847 24.3938 2.64256C23.4407 2.94069 22.4609 3.42284 21.6582 4.03379C21.2569 4.3392 20.8123 4.743 20.4435 5.25478C20.0894 5.74604 19.6504 6.55513 19.6504 7.602H25.6504C25.6504 8.26537 25.3763 8.67227 25.3109 8.76307C25.2307 8.87439 25.1984 8.87946 25.292 8.80827C25.4789 8.66604 25.8186 8.48356 26.185 8.36894C26.3574 8.31502 26.4822 8.29322 26.5482 8.28682C26.6285 8.27902 26.5466 8.30041 26.357 8.25169C26.151 8.19873 25.7317 8.0356 25.3735 7.59478C25.0007 7.13611 24.9284 6.66595 24.9284 6.432H30.9284ZM19.6504 7.602C19.6504 9.22316 20.5625 10.3029 20.7304 10.5304C20.9402 10.8148 20.6384 10.4798 20.6384 9.994H26.6384C26.6384 8.39016 25.8426 7.35324 25.5584 6.96805C25.2322 6.52606 25.6504 6.96884 25.6504 7.602H19.6504ZM20.6384 9.994C20.6384 10.1089 20.6243 10.0552 20.6727 9.91305C20.7241 9.76224 20.7949 9.66545 20.7649 9.70908C20.7511 9.72903 20.739 9.74617 20.7075 9.79087C20.6812 9.82815 20.6401 9.88663 20.5963 9.95201C20.5069 10.0852 20.3785 10.287 20.2557 10.5418C19.9817 11.1105 19.8324 11.7399 19.8324 12.438H25.8324C25.8324 12.6291 25.7838 12.8913 25.6609 13.1464C25.6137 13.2443 25.5735 13.3027 25.5786 13.2951C25.6318 13.2159 25.5746 13.3035 25.7059 13.1129C25.8774 12.8641 26.1497 12.4423 26.3522 11.8478C26.5517 11.2621 26.6384 10.6461 26.6384 9.994H20.6384ZM37.9171 10.462L35.9792 8.17184L34.4287 9.48381L35.071 11.4107L37.9171 10.462ZM38.2551 10.176L40.9998 8.96508L39.3803 5.29406L36.3172 7.88584L38.2551 10.176ZM39.2171 12.568L36.7594 14.2884L36.7676 14.3001L36.7759 14.3117L39.2171 12.568ZM44.9891 11.476L47.5363 9.89108L47.5303 9.88153L44.9891 11.476ZM41.5051 8.564L44.0081 6.91023L43.9928 6.88718L43.9772 6.86441L41.5051 8.564ZM41.2191 8.148L40.2101 5.32277L36.5378 6.63429L38.7469 9.84759L41.2191 8.148ZM44.0271 6.978L46.1155 9.1317L46.1477 9.1005L46.1789 9.06836L44.0271 6.978ZM39.8671 6.146L42.0253 8.22978L42.0266 8.22841L39.8671 6.146ZM38.0731 8.642L36.178 6.31629L36.1652 6.32675L36.1525 6.33734L38.0731 8.642ZM37.6051 9.032L34.6459 9.5252L35.5061 14.6863L39.5256 11.3367L37.6051 9.032ZM30.2891 12.438C30.2891 13.1106 30.4206 13.8735 30.8261 14.609C31.2404 15.3603 31.8373 15.895 32.472 16.2508C33.6063 16.8867 34.9013 16.972 35.8371 16.972V10.972C35.5264 10.972 35.3403 10.9529 35.2449 10.9365C35.1426 10.9189 35.2309 10.9189 35.4061 11.0172C35.6118 11.1325 35.8837 11.3552 36.0802 11.7117C36.2681 12.0523 36.2891 12.3374 36.2891 12.438H30.2891ZM35.8371 16.972C36.7651 16.972 38.0556 16.8857 39.1878 16.2461C39.8203 15.8888 40.4133 15.3537 40.8247 14.6048C41.2275 13.8716 41.3591 13.1108 41.3591 12.438H35.3591C35.3591 12.3372 35.3801 12.0542 35.566 11.7158C35.7605 11.3618 36.0301 11.1387 36.2368 11.0219C36.4134 10.9222 36.5048 10.9208 36.4085 10.9375C36.3186 10.9531 36.1392 10.972 35.8371 10.972V16.972ZM41.3591 12.438C41.3591 11.0582 40.9089 9.95059 40.7631 9.51332L35.071 11.4107C35.3413 12.2214 35.3591 12.2578 35.3591 12.438H41.3591ZM39.8549 12.7522L40.1929 12.4662L36.3172 7.88584L35.9792 8.17184L39.8549 12.7522ZM35.5103 11.3869C35.6177 11.6302 35.6385 11.7513 35.8175 12.3167C35.9776 12.8223 36.2308 13.5334 36.7594 14.2884L41.6748 10.8476C41.6573 10.8226 41.6245 10.7797 41.5376 10.5053C41.4696 10.2907 41.2825 9.60576 40.9998 8.96508L35.5103 11.3869ZM36.7759 14.3117C37.2854 15.025 37.9931 15.8584 39.1273 16.3931C40.1966 16.8972 41.3068 16.972 42.2591 16.972V10.972C41.9248 10.972 41.7413 10.9554 41.6458 10.9408C41.5635 10.9282 41.5979 10.9245 41.6858 10.9659C41.7824 11.0114 41.8445 11.0643 41.8576 11.0767C41.8585 11.0777 41.8424 11.0623 41.8076 11.0207C41.7724 10.9784 41.7238 10.916 41.6583 10.8243L36.7759 14.3117ZM42.2591 16.972C43.796 16.972 45.3473 16.392 46.4571 15.4544C47.0212 14.9778 47.6484 14.257 47.9627 13.2684C48.31 12.1757 48.2001 10.958 47.5362 9.89109L42.4419 13.0609C42.3142 12.8557 42.2066 12.5856 42.1694 12.2683C42.1326 11.9541 42.174 11.6729 42.2446 11.4508C42.3128 11.2362 42.4036 11.0893 42.4643 11.0064C42.5253 10.9232 42.5726 10.8816 42.585 10.8711C42.6033 10.8557 42.5627 10.8914 42.4617 10.9283C42.3641 10.9639 42.2877 10.972 42.2591 10.972V16.972ZM47.5303 9.88153C46.6613 8.49665 45.3501 7.79646 44.8163 7.48261C44.1341 7.08154 44.0597 6.98844 44.0081 6.91023L39.0021 10.2178C39.9124 11.5956 41.164 12.2955 41.7753 12.6549C42.535 13.1015 42.4848 13.1294 42.4479 13.0705L47.5303 9.88153ZM43.9772 6.86441L43.6912 6.44841L38.7469 9.84759L39.0329 10.2636L43.9772 6.86441ZM42.2281 10.9732C42.3668 10.9237 42.5171 10.8812 42.7378 10.825C42.9191 10.7788 43.2682 10.6952 43.5859 10.5983C44.3456 10.3666 45.2452 9.97565 46.1155 9.1317L41.9386 4.8243C41.9227 4.83975 41.9304 4.83028 41.9506 4.81935C41.963 4.81264 41.9422 4.82675 41.8357 4.85922C41.6952 4.90207 41.5714 4.93056 41.2579 5.01034C40.9838 5.0801 40.6173 5.17734 40.2101 5.32277L42.2281 10.9732ZM46.1789 9.06836C46.7607 8.46949 47.3546 7.52633 47.3397 6.29367C47.3246 5.05399 46.7016 4.14072 46.1172 3.59644C45.0538 2.60599 43.6199 2.288 42.5191 2.288V8.288C42.519 8.288 42.5191 8.288 42.5193 8.28801C42.5196 8.28802 42.5198 8.28803 42.52 8.28804C42.5205 8.28808 42.5202 8.28808 42.5187 8.28786C42.5171 8.28761 42.5041 8.28559 42.4788 8.27739C42.4566 8.27016 42.2663 8.20912 42.0279 7.98706C41.775 7.75153 41.3502 7.20388 41.3401 6.36639C41.33 5.53592 41.7355 5.03151 41.8752 4.88764L46.1789 9.06836ZM42.5191 2.288C41.3941 2.288 39.3162 2.39531 37.7075 4.06359L42.0266 8.22841C41.9911 8.26523 41.9474 8.29825 41.9057 8.32162C41.8673 8.34318 41.8517 8.34472 41.8769 8.33781C41.9048 8.33018 41.9676 8.31633 42.0796 8.30534C42.1923 8.29428 42.3342 8.288 42.5191 8.288V2.288ZM37.7089 4.06222C36.8959 4.9042 36.5238 5.93923 36.5091 5.97036C36.4827 6.02641 36.4784 6.02954 36.4714 6.03855C36.4563 6.05806 36.3825 6.14973 36.178 6.31629L39.9681 10.9677C40.4657 10.5623 40.8761 10.1502 41.2152 9.71226C41.5625 9.26383 41.7824 8.85584 41.938 8.52514C42.2874 7.78277 42.1102 8.1418 42.0253 8.22978L37.7089 4.06222ZM36.1525 6.33734L35.6845 6.72734L39.5256 11.3367L39.9936 10.9467L36.1525 6.33734ZM40.5642 8.5388C40.5711 8.57964 40.5748 8.61247 40.5769 8.63498C40.579 8.65724 40.5796 8.671 40.5797 8.67311C40.5798 8.67482 40.5795 8.66878 40.5793 8.64975C40.5792 8.64045 40.5791 8.6292 40.5791 8.61469C40.5791 8.59974 40.5791 8.58415 40.5791 8.564H34.5791C34.5791 8.68038 34.5724 9.08426 34.6459 9.5252L40.5642 8.5388ZM40.5791 8.564V6.042H34.5791V8.564H40.5791ZM40.5791 6.042C40.5791 5.66181 40.6434 5.42816 40.8069 4.95122C40.9786 4.45037 41.3591 3.46063 41.3591 2.168H35.3591C35.3591 2.30537 35.3495 2.36863 35.1312 3.00528C34.9047 3.66584 34.5791 4.65419 34.5791 6.042H40.5791ZM41.3591 2.168C41.3591 1.4945 41.2273 0.738959 40.8321 0.0107041C40.429 -0.732086 39.8467 -1.27106 39.2178 -1.63592C38.0829 -2.29431 36.7872 -2.392 35.8371 -2.392V3.608C36.1308 3.608 36.3033 3.62755 36.3862 3.64261C36.4747 3.65868 36.3819 3.65546 36.2069 3.55392C36.0037 3.43606 35.7448 3.21558 35.5586 2.87254C35.3803 2.54404 35.3591 2.2695 35.3591 2.168H41.3591ZM35.8371 -2.392C34.8795 -2.392 33.5792 -2.29555 32.4422 -1.64087C31.8108 -1.27738 31.2246 -0.738681 30.8187 0.00656922C30.4208 0.737058 30.2891 1.49466 30.2891 2.168H36.2891C36.2891 2.26934 36.2679 2.54594 36.0877 2.87668C35.8995 3.22218 35.6383 3.44238 35.436 3.55887C35.2623 3.65886 35.1725 3.66064 35.2669 3.64369C35.3555 3.6278 35.5347 3.608 35.8371 3.608V-2.392ZM30.2891 2.168C30.2891 3.46063 30.6695 4.45037 30.8412 4.95122C31.0047 5.42816 31.0691 5.66181 31.0691 6.042H37.0691C37.0691 4.65419 36.7434 3.66584 36.5169 3.00528C36.2986 2.36863 36.2891 2.30537 36.2891 2.168H30.2891ZM31.0691 6.042V8.564H37.0691V6.042H31.0691ZM31.0691 8.564C31.0691 8.94419 31.0047 9.17784 30.8412 9.65478C30.6695 10.1556 30.2891 11.1454 30.2891 12.438H36.2891C36.2891 12.3006 36.2986 12.2374 36.5169 11.6007C36.7434 10.9402 37.0691 9.95181 37.0691 8.564H31.0691ZM50.5616 7.316L48.4984 9.49386L48.5807 9.57184L48.6686 9.64339L50.5616 7.316ZM56.0996 11.84L59.0873 12.1116L59.0931 12.0472L59.0962 11.9827L56.0996 11.84ZM55.3196 12.672L55.2596 15.6714L55.2896 15.672H55.3196V12.672ZM50.6396 9.11L50.7206 6.11109L50.7043 6.11065L50.688 6.11039L50.6396 9.11ZM50.5356 13.036L51.0005 10.0722L50.9906 10.0707L50.9806 10.0692L50.5356 13.036ZM54.7996 13.972L54.8802 10.9731L54.8687 10.9728L54.8573 10.9726L54.7996 13.972ZM60.1556 7.732L57.8509 9.65255L57.9231 9.73915L58.0016 9.82009L60.1556 7.732ZM59.6616 7.29L61.614 5.01223L61.6012 5.00126L61.5883 4.99044L59.6616 7.29ZM54.1496 2.766L57.1443 2.94426L57.1455 2.92325L57.1465 2.90222L54.1496 2.766ZM54.9036 1.934L54.7274 4.92882L54.7855 4.93224L54.8436 4.9334L54.9036 1.934ZM59.5836 5.47L59.6788 2.47151L59.6517 2.47065L59.6247 2.47028L59.5836 5.47ZM59.6876 1.57L59.2797 4.54213L59.2889 4.5434L59.2981 4.5446L59.6876 1.57ZM55.4236 0.608L55.5093 -2.39078L55.4989 -2.39107L55.4884 -2.3913L55.4236 0.608ZM50.0676 6.848L47.9243 8.94711L47.9636 8.98723L48.0044 9.02586L50.0676 6.848ZM48.6686 9.64339C49.3953 10.2344 50.2087 10.6908 50.8596 11.0357C51.6205 11.4389 52.079 11.6535 52.6116 11.958C52.8426 12.0901 53.0144 12.1998 53.1418 12.2926C53.2037 12.3376 53.2482 12.3737 53.2789 12.4005C53.3096 12.4274 53.3219 12.441 53.3215 12.4406C53.2908 12.4065 53.0828 12.122 53.103 11.6973L59.0962 11.9827C59.1684 10.466 58.5378 9.26827 57.7833 8.42901C57.0935 7.66188 56.2422 7.12241 55.5901 6.74947C54.9689 6.3943 54.1454 5.9865 53.6688 5.73399C53.0822 5.42316 52.7029 5.19063 52.4545 4.98861L48.6686 9.64339ZM53.1119 11.5684C53.1238 11.4372 53.2008 10.8956 53.7091 10.3749C54.2653 9.80519 54.9306 9.672 55.3196 9.672V15.672C56.1506 15.672 57.1799 15.4088 58.0026 14.5661C58.7774 13.7724 59.0233 12.8148 59.0873 12.1116L53.1119 11.5684ZM55.3796 9.6726C55.7277 9.67956 55.814 10.0852 55.1966 9.18908C54.9963 8.8983 54.5187 8.15174 53.9591 7.58092C53.2986 6.90724 52.2346 6.15201 50.7206 6.11109L50.5585 12.1089C50.3273 12.1027 50.1004 12.0395 49.913 11.943C49.745 11.8565 49.6666 11.7732 49.6747 11.7815C49.7667 11.8753 49.8514 12.0062 50.2556 12.5929C50.8472 13.4518 52.3115 15.6124 55.2596 15.6714L55.3796 9.6726ZM50.688 6.11039C49.0193 6.08348 47.8509 7.03846 47.2203 7.90991C46.6021 8.76425 46.2965 9.76683 46.215 10.6793C46.1337 11.589 46.2499 12.7085 46.8251 13.744C47.4557 14.8793 48.5802 15.7763 50.0906 16.0028L50.9806 10.0692C51.1675 10.0972 51.4005 10.1776 51.6256 10.3391C51.845 10.4966 51.9869 10.6804 52.0703 10.8306C52.1501 10.9743 52.1762 11.0849 52.1849 11.1352C52.1939 11.1868 52.1913 11.2117 52.1912 11.2132C52.191 11.2152 52.1906 11.2232 52.1833 11.2442C52.1769 11.2625 52.1518 11.3297 52.0812 11.4273C51.9463 11.6138 51.4539 12.1235 50.5912 12.1096L50.688 6.11039ZM50.0707 15.9998C50.3635 16.0457 50.1217 16.0221 51.1387 16.3866C52.0394 16.7094 53.1001 16.9399 54.7419 16.9714L54.8573 10.9726C53.7951 10.9521 53.3868 10.8186 53.163 10.7384C53.08 10.7087 52.9952 10.6753 52.8741 10.6266C52.7666 10.5833 52.5996 10.5153 52.4289 10.4516C52.049 10.31 51.5852 10.164 51.0005 10.0722L50.0707 15.9998ZM54.719 16.9709C57.8971 17.0564 60.7997 15.8532 62.5264 13.7715C63.3984 12.7202 64.0224 11.3643 64.0406 9.83603C64.0594 8.261 63.4287 6.79827 62.3096 5.64391L58.0016 9.82009C58.1175 9.93973 58.0393 9.91025 58.041 9.7644C58.0422 9.66529 58.0795 9.73456 57.9083 9.94098C57.5485 10.3748 56.5381 11.0176 54.8802 10.9731L54.719 16.9709ZM62.4603 5.81144C62.228 5.53272 61.9936 5.32889 61.8659 5.22084C61.8001 5.16518 61.7332 5.11065 61.697 5.08107C61.6527 5.04483 61.6308 5.02668 61.614 5.01223L57.7092 9.56777C57.7834 9.63132 57.8525 9.68792 57.8976 9.72481C57.9231 9.74572 57.9396 9.7592 57.9569 9.77337C57.9729 9.78655 57.9832 9.79514 57.9903 9.80116C58.0058 9.81428 57.9963 9.80689 57.9744 9.78599C57.9519 9.76444 57.9065 9.71929 57.8509 9.65255L62.4603 5.81144ZM61.5883 4.99044C60.8581 4.37872 60.0368 3.91225 59.382 3.56303C58.5988 3.14542 58.1709 2.94912 57.619 2.63506C57.3869 2.503 57.2154 2.39402 57.0886 2.30225C56.9602 2.20927 56.9155 2.16084 56.9158 2.16117C56.9563 2.20623 57.1703 2.50682 57.1443 2.94426L51.1549 2.58774C51.0639 4.11718 51.6939 5.32777 52.4551 6.17396C53.147 6.94309 54.0034 7.48108 54.6517 7.84994C55.2535 8.19238 56.1078 8.61683 56.5588 8.85734C57.1381 9.16625 57.5031 9.39528 57.7349 9.58956L61.5883 4.99044ZM57.1465 2.90222C57.1399 3.04641 57.0834 3.61409 56.5672 4.16906C55.9817 4.79841 55.2317 4.95849 54.7274 4.92882L55.0798 -1.06082C54.1335 -1.11649 53.0195 -0.826415 52.174 0.0824383C51.3978 0.916905 51.1852 1.91358 51.1527 2.62978L57.1465 2.90222ZM54.8436 4.9334C54.504 4.92661 54.4236 4.53224 55.0436 5.42414C55.2436 5.71181 55.724 6.45613 56.2828 7.02193C56.9432 7.69061 58.0167 8.44882 59.5425 8.46972L59.6247 2.47028C59.8669 2.4736 60.1044 2.53743 60.3003 2.63672C60.4757 2.72562 60.5585 2.81266 60.5517 2.80576C60.4613 2.71424 60.3779 2.58594 59.9701 1.99936C59.3746 1.14276 57.9032 -1.00661 54.9636 -1.0654L54.8436 4.9334ZM59.4884 8.46849C61.1513 8.52128 62.3397 7.59534 62.9929 6.72962C63.633 5.88113 63.9615 4.87308 64.0541 3.94424C64.1462 3.01957 64.0327 1.86933 63.4229 0.810324C62.7507 -0.357016 61.5788 -1.20795 60.0771 -1.4046L59.2981 4.5446C59.141 4.52403 58.92 4.45827 58.6937 4.3048C58.4705 4.1535 58.3176 3.96816 58.2233 3.80436C58.1334 3.64821 58.1021 3.52292 58.091 3.4591C58.0797 3.39449 58.0827 3.35861 58.0836 3.34925C58.0846 3.33932 58.0867 3.32575 58.0956 3.30149C58.1035 3.27975 58.1308 3.21189 58.2031 3.11594C58.342 2.93191 58.8349 2.44472 59.6788 2.47151L59.4884 8.46849ZM60.0955 -1.40213C59.8698 -1.43311 60.104 -1.39861 59.1283 -1.76167C58.2362 -2.09362 57.1744 -2.3432 55.5093 -2.39078L55.3379 3.60678C56.4028 3.6372 56.81 3.77762 57.0359 3.86166C57.1782 3.91461 58.1793 4.39111 59.2797 4.54213L60.0955 -1.40213ZM55.4884 -2.3913C52.3225 -2.45975 49.4316 -1.24535 47.7095 0.824455C46.8398 1.86973 46.2091 3.22149 46.1864 4.74986C46.1629 6.32914 46.7961 7.79518 47.9243 8.94711L52.2109 4.74889C52.1041 4.63982 52.188 4.68236 52.1857 4.83895C52.1841 4.94463 52.1449 4.87452 52.3217 4.66204C52.6926 4.21635 53.7147 3.57175 55.3587 3.6073L55.4884 -2.3913ZM48.0044 9.02586L48.4984 9.49386L52.6248 5.13814L52.1308 4.67014L48.0044 9.02586ZM62.8779 7.472H65.8779V4.472H62.8779V7.472ZM69.2219 12.49L66.6669 10.9177L66.6451 10.9531L66.6243 10.9892L69.2219 12.49ZM68.2079 11.424L66.9665 8.6929L66.9363 8.70662L66.9064 8.72099L68.2079 11.424ZM66.5699 7.472V4.472H63.5699V7.472H66.5699ZM67.1419 5.288L64.4108 4.04659L62.4829 8.288H67.1419V5.288ZM62.5139 10.472H62.8779V4.472H62.5139V10.472ZM59.8779 7.472V11.268H65.8779V7.472H59.8779ZM59.8779 11.268C59.8779 13.2199 60.7975 14.7568 62.08 15.7204C63.268 16.6131 64.6887 16.972 65.9199 16.972V10.972C65.8695 10.972 65.8037 10.9633 65.7427 10.9445C65.6818 10.9259 65.6661 10.91 65.6842 10.9236C65.7081 10.9415 65.7691 10.9963 65.8208 11.0957C65.8455 11.1431 65.8613 11.1882 65.8701 11.2252C65.8788 11.2618 65.8779 11.2783 65.8779 11.268H59.8779ZM65.9199 16.972C66.7158 16.972 67.745 16.8628 68.7703 16.4824C69.8031 16.0993 71.0276 15.3614 71.8195 13.9908L66.6243 10.9892C66.7402 10.7886 66.8596 10.7917 66.6835 10.8571C66.6024 10.8871 66.4881 10.9178 66.3438 10.9401C66.2009 10.9621 66.054 10.972 65.9199 10.972V16.972ZM71.7769 14.0623C72.1461 13.4622 72.5192 12.5614 72.3836 11.4843C72.2366 10.3169 71.5596 9.46812 70.8203 8.9783C69.5897 8.16305 68.0686 8.19195 66.9665 8.6929L69.4493 14.1551C69.0976 14.315 68.7843 14.3465 68.5456 14.3345C68.3137 14.3229 67.9261 14.2582 67.5065 13.9802C67.0271 13.6626 66.5354 13.0657 66.4306 12.2339C66.3373 11.4924 66.6096 11.0108 66.6669 10.9177L71.7769 14.0623ZM66.9064 8.72099C66.714 8.81363 66.8023 8.73821 67.083 8.71222C67.4252 8.68053 68.1041 8.72795 68.7444 9.24374C69.3251 9.71155 69.4949 10.2655 69.538 10.4373C69.5821 10.6128 69.5699 10.6905 69.5699 10.566H63.5699C63.5699 10.8835 63.5869 11.3739 63.7187 11.8989C63.8496 12.42 64.1657 13.2599 64.9804 13.9163C65.8547 14.6205 66.8553 14.759 67.6362 14.6867C68.3557 14.62 68.9997 14.3724 69.5093 14.127L66.9064 8.72099ZM69.5699 10.566V7.472H63.5699V10.566H69.5699ZM66.5699 10.472H67.9219V4.472H66.5699V10.472ZM67.9219 10.472C70.1767 10.472 72.0139 8.63486 72.0139 6.38H66.0139C66.0139 5.32114 66.863 4.472 67.9219 4.472V10.472ZM72.0139 6.38C72.0139 4.12515 70.1767 2.288 67.9219 2.288V8.288C66.863 8.288 66.0139 7.43885 66.0139 6.38H72.0139ZM67.9219 2.288H67.1419V8.288H67.9219V2.288ZM69.873 6.52941C70.072 6.09156 70.3759 5.34533 70.3759 4.352H64.3759C64.3759 4.23632 64.3941 4.1294 64.4162 4.04949C64.4342 3.98448 64.4476 3.96549 64.4108 4.04659L69.873 6.52941ZM70.3759 4.352C70.3759 3.12717 69.8826 1.8808 68.759 1.05283C67.7901 0.338939 66.713 0.208 65.9979 0.208V6.208C65.9963 6.208 65.9791 6.20796 65.9483 6.20452C65.9176 6.2011 65.8673 6.19363 65.8012 6.17679C65.673 6.1441 65.4482 6.0662 65.1998 5.88317C64.9366 5.68924 64.7045 5.41836 64.5517 5.09091C64.4042 4.77491 64.3759 4.50448 64.3759 4.352H70.3759ZM65.9979 0.208C64.8737 0.208 63.9856 0.646484 63.4181 1.01311C62.8505 1.3798 62.3884 1.81667 62.0926 2.10707C61.694 2.49829 61.6247 2.58491 61.4772 2.7153C61.4305 2.75652 61.4956 2.69124 61.6441 2.6049C61.7703 2.53156 62.2157 2.288 62.8779 2.288V8.288C63.7091 8.288 64.3373 7.97944 64.6591 7.79235C65.0034 7.59226 65.277 7.36448 65.451 7.2107C65.7447 6.95109 66.1645 6.5177 66.2957 6.38893C66.5296 6.15932 66.6379 6.0762 66.674 6.05289C66.7101 6.02952 66.459 6.208 65.9979 6.208V0.208ZM62.8779 2.288H62.5139V8.288H62.8779V2.288ZM62.5139 2.288C60.259 2.288 58.4219 4.12515 58.4219 6.38H64.4219C64.4219 7.43885 63.5727 8.288 62.5139 8.288V2.288ZM58.4219 6.38C58.4219 8.63485 60.259 10.472 62.5139 10.472V4.472C63.5727 4.472 64.4219 5.32114 64.4219 6.38H58.4219ZM79.7043 5.548L78.5226 8.30543L79.5494 8.7455L80.614 8.40678L79.7043 5.548ZM75.1543 6.25L72.1749 6.60052L72.8431 12.2801L77.1362 8.50214L75.1543 6.25ZM77.4163 6.562L75.5423 8.9046L75.6439 8.98594L75.7523 9.05817L77.4163 6.562ZM77.3903 6.978L79.5887 9.01935L79.9915 8.5856L80.1993 8.03137L77.3903 6.978ZM86.1263 11.58L88.7194 13.0887L88.7253 13.0786L88.7311 13.0684L86.1263 11.58ZM84.8263 10.982L87.4439 12.4478L87.452 12.4332L87.46 12.4186L84.8263 10.982ZM82.3303 11.346L79.6258 10.0478L78.2188 12.9789L81.2534 14.146L82.3303 11.346ZM81.2903 10.722L79.4163 13.0646L83.694 16.4868L84.2735 11.0394L81.2903 10.722ZM89.2563 8.512C89.2563 6.39574 87.8907 4.79642 86.6182 3.88542C85.247 2.90377 83.4459 2.288 81.4983 2.288V8.288C82.2028 8.288 82.7807 8.51722 83.1255 8.76408C83.2066 8.82212 83.2653 8.87441 83.3048 8.91485C83.3448 8.95574 83.3589 8.97807 83.3572 8.97545C83.3558 8.97313 83.3322 8.93592 83.3077 8.86076C83.2828 8.78415 83.2563 8.66534 83.2563 8.512H89.2563ZM81.4983 2.288C80.6234 2.288 79.7112 2.39762 78.7947 2.68922L80.614 8.40678C80.8415 8.33438 81.1253 8.288 81.4983 8.288V2.288ZM80.8861 2.79057C80.1402 2.4709 79.2953 2.288 78.3523 2.288V8.288C78.4333 8.288 78.4801 8.29555 78.5001 8.29959C78.5194 8.30353 78.5251 8.3065 78.5226 8.30543L80.8861 2.79057ZM78.3523 2.288C76.3524 2.288 74.5255 2.80715 73.1725 3.99786L77.1362 8.50214C77.0832 8.54885 77.3363 8.288 78.3523 8.288V2.288ZM78.1338 5.89948C78.0283 5.00316 77.6421 4.11837 76.9137 3.43054C76.2232 2.77842 75.4234 2.4895 74.7772 2.36828C73.5595 2.13985 72.3494 2.39735 71.4843 2.68498C70.5634 2.99117 69.6149 3.47177 68.8355 4.08285C68.4455 4.38855 68.0144 4.79204 67.6578 5.30252C67.3127 5.79673 66.9023 6.58855 66.9023 7.602H72.9023C72.9023 8.23845 72.648 8.6362 72.5769 8.73808C72.4944 8.85622 72.4552 8.86911 72.5374 8.80471C72.702 8.6756 73.0178 8.49808 73.3774 8.37852C73.5458 8.32253 73.6769 8.29521 73.7581 8.28484C73.8508 8.273 73.8103 8.29156 73.6709 8.26541C73.5293 8.23884 73.1621 8.14025 72.7943 7.79292C72.609 7.61795 72.4567 7.40936 72.3477 7.18201C72.2403 6.95818 72.193 6.75455 72.1749 6.60052L78.1338 5.89948ZM66.9023 7.602C66.9023 9.22316 67.8145 10.3029 67.9824 10.5304C68.1921 10.8148 67.8903 10.4798 67.8903 9.994H73.8903C73.8903 8.39016 73.0946 7.35324 72.8103 6.96805C72.4842 6.52606 72.9023 6.96884 72.9023 7.602H66.9023ZM67.8903 9.994C67.8903 10.1089 67.8762 10.0552 67.9247 9.91305C67.976 9.76224 68.0469 9.66545 68.0168 9.70908C68.0031 9.72903 67.9909 9.74617 67.9594 9.79087C67.9332 9.82815 67.8921 9.88663 67.8482 9.95201C67.7588 10.0852 67.6304 10.287 67.5077 10.5418C67.2336 11.1105 67.0843 11.7399 67.0843 12.438H73.0843C73.0843 12.6291 73.0358 12.8913 72.9129 13.1464C72.8657 13.2443 72.8255 13.3027 72.8305 13.2951C72.8837 13.2159 72.8266 13.3035 72.9579 13.1129C73.1293 12.8641 73.4017 12.4423 73.6042 11.8478C73.8037 11.2621 73.8903 10.6461 73.8903 9.994H67.8903ZM67.0843 12.438C67.0843 13.1106 67.2158 13.8735 67.6214 14.609C68.0357 15.3603 68.6326 15.895 69.2673 16.2508C70.4016 16.8867 71.6966 16.972 72.6323 16.972V10.972C72.3217 10.972 72.1356 10.9529 72.0402 10.9365C71.9379 10.9189 72.0262 10.9189 72.2014 11.0172C72.4071 11.1325 72.679 11.3552 72.8755 11.7117C73.0634 12.0523 73.0843 12.3374 73.0843 12.438H67.0843ZM72.6323 16.972C73.5681 16.972 74.8631 16.8867 75.9974 16.2508C76.6321 15.895 77.229 15.3603 77.6433 14.609C78.0489 13.8735 78.1803 13.1106 78.1803 12.438H72.1803C72.1803 12.3374 72.2013 12.0523 72.3892 11.7117C72.5857 11.3552 72.8576 11.1325 73.0633 11.0172C73.2385 10.9189 73.3268 10.9189 73.2245 10.9365C73.1291 10.9529 72.943 10.972 72.6323 10.972V16.972ZM78.1803 12.438C78.1803 11.012 77.558 10.0232 77.4426 9.79994C77.4105 9.73772 77.3994 9.71279 77.3949 9.70208C77.3929 9.69736 77.3924 9.69572 77.3925 9.69617C77.3927 9.69667 77.3928 9.6972 77.3928 9.69701C77.3927 9.69678 77.3919 9.69374 77.3906 9.68712C77.3892 9.68042 77.3871 9.66848 77.3848 9.65047C77.3802 9.61471 77.3743 9.54972 77.3743 9.448H71.3743C71.3743 10.1228 71.4534 10.7278 71.6078 11.2887C71.7624 11.8507 71.9679 12.2751 72.1121 12.5541C72.3997 13.1108 72.1803 12.746 72.1803 12.438H78.1803ZM77.3743 9.448C77.3743 9.76922 77.2552 9.92458 77.2823 9.88435C77.3093 9.84432 77.3982 9.73939 77.5613 9.6158C77.6355 9.55955 77.7081 9.51242 77.7704 9.47688C77.8354 9.43976 77.8688 9.42679 77.8622 9.42933C77.8578 9.43105 77.8311 9.4413 77.7834 9.45436C77.7392 9.46647 77.6478 9.48909 77.5181 9.50407C77.3994 9.5178 77.166 9.53513 76.8653 9.48924C76.5744 9.44484 76.0558 9.31543 75.5423 8.9046L79.2904 4.2194C78.2503 3.38731 77.0977 3.51272 76.8292 3.54375C76.3761 3.59613 75.979 3.72415 75.6908 3.83604C75.0929 4.06815 74.4833 4.42005 73.9369 4.8342C73.0081 5.53818 71.3743 7.11514 71.3743 9.448H77.3743ZM75.7523 9.05817C75.0727 8.60512 74.7246 7.97102 74.5751 7.45612C74.4407 6.99325 74.4582 6.61508 74.4742 6.43989C74.4918 6.24555 74.5272 6.10466 74.544 6.04321C74.5627 5.97453 74.5785 5.93222 74.5814 5.92463L80.1993 8.03137C80.2647 7.85705 80.4059 7.46322 80.4495 6.98311C80.4776 6.67462 80.5783 5.0644 79.0804 4.06583L75.7523 9.05817ZM75.192 4.93665C74.0342 6.18343 73.3243 7.83688 73.3243 9.63H79.3243C79.3243 9.44712 79.3945 9.22857 79.5887 9.01935L75.192 4.93665ZM73.3243 9.63C73.3243 14.1833 77.5043 16.972 81.4983 16.972V10.972C80.7308 10.972 80.1293 10.7126 79.7641 10.407C79.4087 10.1096 79.3243 9.82749 79.3243 9.63H73.3243ZM81.4983 16.972C84.4088 16.972 87.2629 15.5921 88.7194 13.0887L83.5333 10.0713C83.3258 10.4279 82.6439 10.972 81.4983 10.972V16.972ZM88.7311 13.0684C89.2174 12.2174 89.5106 10.9372 88.8591 9.65942C88.2885 8.54038 87.3004 8.05036 86.665 7.85619C85.9916 7.65045 85.2496 7.61994 84.5445 7.78652C83.871 7.94562 82.8179 8.39923 82.1927 9.54544L87.46 12.4186C86.9908 13.2788 86.2432 13.5504 85.9239 13.6258C85.573 13.7087 85.2341 13.6928 84.9117 13.5943C84.6272 13.5074 83.9382 13.2172 83.5139 12.385C83.0085 11.394 83.2953 10.4876 83.5216 10.0916L88.7311 13.0684ZM82.2088 9.51619C82.668 8.69617 83.3786 8.58638 83.4368 8.57884C83.5504 8.56413 83.5207 8.58958 83.4073 8.54596L81.2534 14.146C82.154 14.4924 83.1903 14.6609 84.2074 14.5292C85.1691 14.4046 86.6206 13.9178 87.4439 12.4478L82.2088 9.51619ZM85.0349 12.6442C84.7093 13.3225 84.1862 13.4779 84.4003 13.3851C84.6355 13.2831 84.7908 13.2553 85.4699 13.0306C85.9414 12.8746 86.8337 12.5682 87.6105 11.9436C88.5511 11.1873 89.2563 10.0207 89.2563 8.512H83.2563C83.2563 8.32406 83.3 8.061 83.4403 7.78562C83.576 7.51944 83.7454 7.3524 83.8508 7.26767C83.989 7.15651 84.0168 7.19143 83.5848 7.33441C83.3604 7.40866 82.5732 7.63761 82.0137 7.88016C81.4332 8.13183 80.2633 8.71954 79.6258 10.0478L85.0349 12.6442ZM83.1644 8.37939C83.1598 8.37572 83.1591 8.37438 83.161 8.37667C83.1632 8.37932 83.1671 8.38471 83.1709 8.39236C83.1727 8.39599 83.1741 8.39931 83.1751 8.40199C83.176 8.4047 83.1763 8.40587 83.1761 8.40506C83.1759 8.40425 83.175 8.40039 83.1742 8.39293C83.1733 8.38547 83.1723 8.37333 83.1723 8.356H77.1723C77.1723 10.3755 78.1096 12.0193 79.4163 13.0646L83.1644 8.37939ZM83.1723 8.356C83.1723 8.37708 83.1587 8.61492 82.9479 8.90198C82.7476 9.17473 82.4614 9.36336 82.1513 9.45321C81.8882 9.52944 81.4341 9.58136 80.8917 9.34198C80.6038 9.21497 80.2391 8.97827 79.9383 8.56591C79.6216 8.13167 79.4603 7.615 79.4603 7.108H85.4603C85.4603 5.43818 84.3769 4.32173 83.314 3.8527C82.3426 3.42402 81.3164 3.44831 80.4814 3.69029C78.5746 4.24283 77.1723 6.00997 77.1723 8.356H83.1723ZM79.4603 7.108C79.4603 6.78429 79.5423 6.63944 79.4665 6.85445C79.4065 7.02445 79.3175 7.23389 79.1652 7.59034C79.0311 7.9044 78.85 8.32845 78.6962 8.7685C78.5445 9.2022 78.3743 9.77392 78.3072 10.4046L84.2735 11.0394C84.2714 11.0591 84.2799 10.9775 84.3598 10.7491C84.4375 10.5269 84.5409 10.2799 84.683 9.94716C84.807 9.65686 84.986 9.24392 85.1252 8.84924C85.2484 8.49956 85.4603 7.84771 85.4603 7.108H79.4603ZM96.8684 11.58L99.4615 13.0887L99.4673 13.0786L99.4731 13.0684L96.8684 11.58ZM95.5684 10.982L92.9856 9.45581L92.9679 9.4858L92.9509 9.51619L95.5684 10.982ZM93.0724 11.346L90.3678 10.0478L88.949 13.0037L92.019 14.155L93.0724 11.346ZM92.0324 10.722L90.1583 13.0646L94.4361 16.4868L95.0156 11.0394L92.0324 10.722ZM92.2404 16.972C95.1508 16.972 98.0049 15.5921 99.4615 13.0887L94.2754 10.0713C94.0679 10.4279 93.386 10.972 92.2404 10.972V16.972ZM99.4731 13.0684C99.9503 12.2333 100.253 10.9673 99.62 9.68972C99.0589 8.55795 98.0686 8.05721 97.4243 7.85849C96.744 7.64869 96.0017 7.6213 95.302 7.78547C94.6272 7.94379 93.6203 8.38171 92.9856 9.45581L98.1512 12.5082C97.6855 13.2963 96.9906 13.5522 96.6725 13.6268C96.3295 13.7073 95.9885 13.6946 95.656 13.592C95.3594 13.5005 94.6632 13.1997 94.2444 12.3547C93.7532 11.3639 94.0465 10.4717 94.2637 10.0916L99.4731 13.0684ZM92.9509 9.51619C93.4013 8.71189 94.1016 8.5902 94.1859 8.5792C94.3101 8.563 94.2747 8.59287 94.1258 8.53701L92.019 14.155C92.9101 14.4891 93.9407 14.662 94.9619 14.5288C95.9433 14.4008 97.3715 13.9021 98.1859 12.4478L92.9509 9.51619ZM95.777 12.6442C95.4487 13.3281 94.9201 13.4826 95.1403 13.3877C95.3778 13.2854 95.5378 13.2564 96.2189 13.0326C96.6926 12.877 97.5869 12.5721 98.3659 11.9505C99.309 11.1979 100.024 10.0301 100.024 8.512H94.0244C94.0244 8.32028 94.0693 8.05424 94.2116 7.77724C94.3488 7.51006 94.5193 7.34381 94.6235 7.26071C94.7589 7.15261 94.7823 7.18904 94.3459 7.3324C94.117 7.40762 93.328 7.63536 92.766 7.87751C92.1867 8.12714 91.0081 8.71393 90.3678 10.0478L95.777 12.6442ZM100.024 8.512C100.024 6.3811 98.6352 4.78207 97.3645 3.87921C95.9904 2.90284 94.1866 2.288 92.2404 2.288V8.288C92.9462 8.288 93.5344 8.51816 93.8893 8.77029C93.9726 8.82947 94.0331 8.8829 94.0741 8.9244C94.1154 8.96637 94.1302 8.98945 94.1287 8.9871C94.1274 8.98508 94.1031 8.94718 94.0778 8.87025C94.052 8.79178 94.0244 8.66968 94.0244 8.512H100.024ZM92.2404 2.288C88.2339 2.288 84.0664 5.1132 84.0664 9.63H90.0664C90.0664 9.4514 90.1458 9.16556 90.5109 8.8588C90.8814 8.54741 91.4832 8.288 92.2404 8.288V2.288ZM84.0664 9.63C84.0664 14.1833 88.2464 16.972 92.2404 16.972V10.972C91.4729 10.972 90.8714 10.7126 90.5062 10.407C90.1507 10.1096 90.0664 9.82749 90.0664 9.63H84.0664ZM90.2284 7.108C90.2284 6.77129 90.3159 6.61751 90.2382 6.83281C90.1773 7.00149 90.0867 7.2094 89.9304 7.56702C89.793 7.88132 89.6069 8.30726 89.4488 8.74999C89.2932 9.18588 89.1174 9.76433 89.0492 10.4046L95.0156 11.0394C95.0125 11.0687 95.0186 10.9939 95.0994 10.7676C95.1778 10.5481 95.2826 10.3029 95.4279 9.97048C95.5543 9.68135 95.7384 9.26688 95.8814 8.87088C96.0076 8.52149 96.2284 7.86071 96.2284 7.108H90.2284ZM93.9065 8.37939C93.9019 8.37572 93.9012 8.37438 93.9031 8.37667C93.9052 8.37932 93.9091 8.38471 93.9129 8.39236C93.9148 8.39599 93.9161 8.39931 93.9171 8.40199C93.9181 8.4047 93.9183 8.40587 93.9181 8.40506C93.918 8.40425 93.9171 8.40039 93.9162 8.39293C93.9154 8.38547 93.9144 8.37333 93.9144 8.356H87.9144C87.9144 10.3755 88.8517 12.0193 90.1583 13.0646L93.9065 8.37939ZM93.9144 8.356C93.9144 8.3847 93.8981 8.62726 93.6844 8.91501C93.4824 9.18699 93.1983 9.36958 92.8977 9.45571C92.6437 9.52849 92.2009 9.57992 91.6671 9.347C91.3837 9.22334 91.0183 8.99039 90.7148 8.57894C90.3943 8.14444 90.2284 7.62319 90.2284 7.108H96.2284C96.2284 5.41879 95.1216 4.30803 94.0666 3.84769C93.0989 3.42545 92.0776 3.44926 91.2451 3.68779C89.3459 4.23194 87.9144 5.98694 87.9144 8.356H93.9144ZM98.8056 7.472H101.806V4.472H98.8056V7.472ZM105.15 12.49L102.595 10.9177L102.573 10.9531L102.552 10.9892L105.15 12.49ZM104.136 11.424L102.894 8.6929L102.864 8.70662L102.834 8.72099L104.136 11.424ZM102.498 7.472V4.472H99.4976V7.472H102.498ZM103.07 5.288L100.339 4.04659L98.4106 8.288H103.07V5.288ZM98.4416 10.472H98.8056V4.472H98.4416V10.472ZM95.8056 7.472V11.268H101.806V7.472H95.8056ZM95.8056 11.268C95.8056 13.2199 96.7253 14.7568 98.0077 15.7204C99.1958 16.6131 100.616 16.972 101.848 16.972V10.972C101.797 10.972 101.731 10.9633 101.67 10.9445C101.61 10.9259 101.594 10.91 101.612 10.9236C101.636 10.9415 101.697 10.9963 101.749 11.0957C101.773 11.1431 101.789 11.1882 101.798 11.2252C101.807 11.2618 101.806 11.2783 101.806 11.268H95.8056ZM101.848 16.972C102.644 16.972 103.673 16.8628 104.698 16.4824C105.731 16.0993 106.955 15.3614 107.747 13.9908L102.552 10.9892C102.668 10.7886 102.787 10.7917 102.611 10.8571C102.53 10.8871 102.416 10.9178 102.272 10.9401C102.129 10.9621 101.982 10.972 101.848 10.972V16.972ZM107.705 14.0623C108.074 13.4622 108.447 12.5614 108.311 11.4843C108.164 10.3169 107.487 9.46812 106.748 8.9783C105.517 8.16305 103.996 8.19195 102.894 8.6929L105.377 14.1551C105.025 14.315 104.712 14.3465 104.473 14.3345C104.241 14.3229 103.854 14.2582 103.434 13.9802C102.955 13.6626 102.463 13.0657 102.358 12.2339C102.265 11.4924 102.537 11.0108 102.595 10.9177L107.705 14.0623ZM102.834 8.72099C102.642 8.81363 102.73 8.73821 103.011 8.71222C103.353 8.68053 104.032 8.72795 104.672 9.24374C105.253 9.71155 105.423 10.2655 105.466 10.4373C105.51 10.6128 105.498 10.6905 105.498 10.566H99.4976C99.4976 10.8835 99.5146 11.3739 99.6465 11.8989C99.7774 12.42 100.093 13.2599 100.908 13.9163C101.782 14.6205 102.783 14.759 103.564 14.6867C104.283 14.62 104.927 14.3724 105.437 14.127L102.834 8.72099ZM105.498 10.566V7.472H99.4976V10.566H105.498ZM102.498 10.472H103.85V4.472H102.498V10.472ZM103.85 10.472C106.104 10.472 107.942 8.63486 107.942 6.38H101.942C101.942 5.32114 102.791 4.472 103.85 4.472V10.472ZM107.942 6.38C107.942 4.12515 106.104 2.288 103.85 2.288V8.288C102.791 8.288 101.942 7.43885 101.942 6.38H107.942ZM103.85 2.288H103.07V8.288H103.85V2.288ZM105.801 6.52941C106 6.09156 106.304 5.34533 106.304 4.352H100.304C100.304 4.23632 100.322 4.1294 100.344 4.04949C100.362 3.98448 100.375 3.96549 100.339 4.04659L105.801 6.52941ZM106.304 4.352C106.304 3.12717 105.81 1.8808 104.687 1.05283C103.718 0.338939 102.641 0.208 101.926 0.208V6.208C101.924 6.208 101.907 6.20796 101.876 6.20452C101.845 6.2011 101.795 6.19363 101.729 6.17679C101.601 6.1441 101.376 6.0662 101.128 5.88317C100.864 5.68924 100.632 5.41836 100.479 5.09091C100.332 4.77491 100.304 4.50448 100.304 4.352H106.304ZM101.926 0.208C100.801 0.208 99.9133 0.646484 99.3458 1.01311C98.7782 1.3798 98.3162 1.81667 98.0203 2.10707C97.6218 2.49829 97.5524 2.58491 97.4049 2.7153C97.3583 2.75652 97.4233 2.69124 97.5719 2.6049C97.698 2.53156 98.1434 2.288 98.8056 2.288V8.288C99.6368 8.288 100.265 7.97944 100.587 7.79235C100.931 7.59226 101.205 7.36448 101.379 7.2107C101.672 6.95109 102.092 6.5177 102.223 6.38893C102.457 6.15932 102.566 6.0762 102.602 6.05289C102.638 6.02952 102.387 6.208 101.926 6.208V0.208ZM98.8056 2.288H98.4416V8.288H98.8056V2.288ZM98.4416 2.288C96.1868 2.288 94.3496 4.12515 94.3496 6.38H100.35C100.35 7.43885 99.5005 8.288 98.4416 8.288V2.288ZM94.3496 6.38C94.3496 8.63485 96.1868 10.472 98.4416 10.472V4.472C99.5005 4.472 100.35 5.32114 100.35 6.38H94.3496Z" fill="#F8DCDA"/>
<path d="M36.7145 29.164L37.4895 29.7959L37.4929 29.7918L36.7145 29.164ZM35.7265 28.332L36.416 29.0562L36.4249 29.0478L36.4336 29.0391L35.7265 28.332ZM28.1345 20.428L28.7435 21.2211L28.7491 21.2168L28.7547 21.2124L28.1345 20.428ZM32.3205 21.156L31.5311 21.77L31.538 21.7787L32.3205 21.156ZM35.2065 19.804L34.9256 20.7637L34.9368 20.767L34.9482 20.7701L35.2065 19.804ZM30.6825 32.972C33.4843 32.972 35.925 31.7147 37.4895 29.7959L35.9394 28.5321C34.748 29.9933 32.8726 30.972 30.6825 30.972V32.972ZM37.4929 29.7918C37.7752 29.4416 37.9519 29.0135 37.9321 28.5524C37.9122 28.0891 37.695 27.6796 37.3573 27.4057C36.6526 26.8344 35.6686 26.9756 35.0194 27.6249L36.4336 29.0391C36.4667 29.0059 36.4495 29.0393 36.3693 29.0474C36.2939 29.055 36.1911 29.035 36.0977 28.9593C36.0004 28.8804 35.9392 28.7602 35.9339 28.6381C35.9288 28.5182 35.9787 28.4834 35.936 28.5362L37.4929 29.7918ZM35.0369 27.6078C34.232 28.3741 33.4214 28.4696 32.6089 28.2047C31.7228 27.9159 30.7885 27.1704 29.9999 26.1553C29.2172 25.1477 28.662 23.9811 28.4618 22.9897C28.2504 21.9429 28.4792 21.4241 28.7435 21.2211L27.5254 19.6348C26.3338 20.5499 26.2407 22.0948 26.5014 23.3856C26.7733 24.7318 27.4839 26.1766 28.4205 27.3822C29.3512 28.5804 30.5895 29.65 31.989 30.1062C33.462 30.5864 35.0499 30.3569 36.416 29.0562L35.0369 27.6078ZM28.7547 21.2124C29.3926 20.708 30.7442 20.7583 31.5311 21.7699L33.1098 20.5421C31.7127 18.7457 29.1123 18.38 27.5142 19.6436L28.7547 21.2124ZM31.538 21.7787C31.6711 21.9459 31.7794 22.187 31.882 22.543C31.9324 22.7183 31.9762 22.9013 32.0246 23.1059C32.071 23.3021 32.123 23.5246 32.1838 23.7393C32.3005 24.1514 32.487 24.6834 32.8819 25.1087C33.3225 25.5833 33.9203 25.822 34.6345 25.822V23.822C34.3996 23.822 34.3604 23.7617 34.3476 23.7479C34.2892 23.685 34.2059 23.5394 34.1081 23.1942C34.0617 23.0303 34.0202 22.8542 33.971 22.6458C33.9237 22.4456 33.8696 22.2177 33.8038 21.9895C33.674 21.5387 33.4769 21.0031 33.1029 20.5333L31.538 21.7787ZM34.6345 25.822C36.4977 25.822 37.5306 24.1199 37.7508 22.7331C37.869 21.989 37.801 21.1668 37.4436 20.4419C37.0734 19.6913 36.4114 19.091 35.4647 18.8379L34.9482 20.7701C35.3145 20.868 35.5235 21.0705 35.6498 21.3265C35.7888 21.6083 35.8427 21.9967 35.7756 22.4194C35.6253 23.3661 35.0592 23.822 34.6345 23.822V25.822ZM35.4874 18.8443C35.278 18.783 35.0396 18.6889 34.7249 18.5601C34.424 18.4368 34.0634 18.2862 33.6682 18.1463C32.8635 17.8615 31.8827 17.608 30.6825 17.608V19.608C31.5882 19.608 32.3364 19.7965 33.0008 20.0317C33.34 20.1518 33.649 20.2807 33.9671 20.4109C34.2716 20.5356 34.6019 20.669 34.9256 20.7637L35.4874 18.8443ZM30.6825 17.608C26.1207 17.608 22.2725 20.9521 22.2725 25.29H24.2725C24.2725 22.2439 27.0282 19.608 30.6825 19.608V17.608ZM22.2725 25.29C22.2725 29.6279 26.1207 32.972 30.6825 32.972V30.972C27.0282 30.972 24.2725 28.3361 24.2725 25.29H22.2725ZM42.7414 32.972C45.9794 32.972 48.9154 30.7598 48.9154 27.63H46.9154C46.9154 29.3362 45.2234 30.972 42.7414 30.972V32.972ZM48.9154 27.63C48.9154 24.5297 45.9836 22.288 42.7414 22.288V24.288C45.2192 24.288 46.9154 25.9463 46.9154 27.63H48.9154ZM42.7414 22.288C39.4992 22.288 36.5674 24.5297 36.5674 27.63H38.5674C38.5674 25.9463 40.2636 24.288 42.7414 24.288V22.288ZM36.5674 27.63C36.5674 30.7598 39.5034 32.972 42.7414 32.972V30.972C40.2594 30.972 38.5674 29.3362 38.5674 27.63H36.5674ZM42.7414 25.588C42.4745 25.588 42.3602 25.431 42.3887 25.4655C42.4129 25.4948 42.4792 25.5976 42.5539 25.8129C42.7001 26.2342 42.8074 26.8786 42.8074 27.63H44.8074C44.8074 26.7174 44.6806 25.8408 44.4434 25.1571C44.3263 24.8199 44.1635 24.4742 43.9317 24.1931C43.7043 23.9173 43.3073 23.588 42.7414 23.588V25.588ZM42.8074 27.63C42.8074 28.3959 42.6997 29.0391 42.5545 29.4551C42.4803 29.6676 42.415 29.7666 42.3928 29.7932C42.368 29.8229 42.4816 29.672 42.7414 29.672V31.672C43.3002 31.672 43.6965 31.3521 43.9276 31.0755C44.1614 30.7958 44.3252 30.4511 44.4428 30.1144C44.681 29.4319 44.8074 28.5541 44.8074 27.63H42.8074ZM42.7414 29.672C43.0236 29.672 43.1435 29.8405 43.114 29.8041C43.0913 29.7762 43.0263 29.6746 42.9527 29.4601C42.8089 29.0409 42.7014 28.3953 42.7014 27.63H40.7014C40.7014 28.5547 40.8279 29.4301 41.061 30.1094C41.1759 30.4441 41.3352 30.7862 41.5611 31.0645C41.7803 31.3345 42.1731 31.672 42.7414 31.672V29.672ZM42.7014 27.63C42.7014 26.8792 42.8085 26.2324 42.9533 25.8079C43.0274 25.5906 43.0934 25.4853 43.118 25.4545C43.1513 25.413 43.0309 25.588 42.7414 25.588V23.588C42.1659 23.588 41.7725 23.9353 41.5571 24.2041C41.3331 24.4837 41.1748 24.8269 41.0605 25.1621C40.8283 25.8426 40.7014 26.7168 40.7014 27.63H42.7014ZM49.633 25.472H50.633V24.472H49.633V25.472ZM53.117 25.472V24.472H52.117V25.472H53.117ZM53.195 23.288L52.2003 23.1851L52.0862 24.288H53.195V23.288ZM55.873 21.728L54.8791 21.8384L54.8801 21.8471L55.873 21.728ZM60.189 21.13L59.2386 21.4413L59.2428 21.4537L60.189 21.13ZM49.711 23.288V24.288H50.564L50.6985 23.4457L49.711 23.288ZM49.425 26.472H49.633V24.472H49.425V26.472ZM48.633 25.472V26.564H50.633V25.472H48.633ZM48.633 26.564C48.633 27.2801 48.4816 27.7653 48.2971 28.3034C48.1098 28.8495 47.853 29.5305 47.853 30.438H49.853C49.853 29.9155 49.9862 29.5435 50.189 28.9521C50.3944 28.3527 50.633 27.6159 50.633 26.564H48.633ZM47.853 30.438C47.853 30.8483 47.9303 31.2591 48.1328 31.6348C48.3389 32.0171 48.6418 32.3018 48.9953 32.5031C49.6558 32.8791 50.5097 32.972 51.375 32.972V30.972C50.5763 30.972 50.1692 30.8699 49.9847 30.7649C49.9157 30.7257 49.9001 30.6984 49.8933 30.6858C49.883 30.6667 49.853 30.5997 49.853 30.438H47.853ZM51.375 32.972C52.2416 32.972 53.0979 32.8786 53.762 32.5063C54.1166 32.3075 54.4239 32.0253 54.6346 31.6432C54.8423 31.2664 54.923 30.8529 54.923 30.438H52.923C52.923 30.5951 52.8932 30.6593 52.8832 30.6774C52.8761 30.6902 52.8584 30.72 52.784 30.7617C52.5901 30.8704 52.1724 30.972 51.375 30.972V32.972ZM54.923 30.438C54.923 29.5242 54.6557 28.8387 54.4626 28.2938C54.272 27.7559 54.117 27.2745 54.117 26.564H52.117C52.117 27.6215 52.365 28.3621 52.5774 28.9617C52.7874 29.5543 52.923 29.9218 52.923 30.438H54.923ZM54.117 26.564V25.472H52.117V26.564H54.117ZM53.117 26.472H53.949V24.472H53.117V26.472ZM53.949 26.472C55.1408 26.472 56.041 25.5146 56.041 24.38H54.041C54.041 24.4144 54.0287 24.4362 54.0161 24.449C54.0095 24.4557 54.0021 24.4608 53.9934 24.4644C53.9855 24.4678 53.9717 24.472 53.949 24.472V26.472ZM56.041 24.38C56.041 23.2454 55.1408 22.288 53.949 22.288V24.288C53.9717 24.288 53.9855 24.2922 53.9934 24.2956C54.0021 24.2992 54.0095 24.3043 54.0161 24.311C54.0287 24.3238 54.041 24.3456 54.041 24.38H56.041ZM53.949 22.288H53.195V24.288H53.949V22.288ZM54.1897 23.3909C54.2633 22.6794 54.407 21.9386 54.6125 21.4048C54.7166 21.1344 54.813 20.98 54.8757 20.9093C54.93 20.848 54.8783 20.934 54.729 20.934V18.934C54.1247 18.934 53.6732 19.2507 53.379 19.5827C53.0931 19.9053 52.8922 20.3066 52.746 20.6862C52.4511 21.4524 52.2827 22.3886 52.2003 23.1851L54.1897 23.3909ZM54.729 20.934C54.7945 20.934 54.7825 20.9442 54.7376 20.9233C54.6826 20.8976 54.6566 20.8627 54.6588 20.866C54.6692 20.8814 54.7089 20.9492 54.755 21.1184C54.8005 21.2851 54.8435 21.5175 54.8791 21.8384L56.8669 21.6176C56.7865 20.894 56.6457 20.2322 56.3137 19.743C56.1307 19.4733 55.8886 19.2531 55.5824 19.1105C55.2865 18.9725 54.9885 18.934 54.729 18.934V20.934ZM54.8801 21.8471C54.9962 22.8143 55.6866 23.3869 56.3658 23.662C57.0316 23.9317 57.8084 23.9822 58.5001 23.893C59.1838 23.8049 59.9292 23.561 60.4798 23.0937C60.764 22.8525 61.0217 22.5287 61.1575 22.1145C61.2968 21.6894 61.2838 21.2408 61.1352 20.8063L59.2428 21.4537C59.2632 21.5132 59.2494 21.5147 59.257 21.4915C59.261 21.4792 59.2561 21.5091 59.1856 21.5689C59.0269 21.7036 58.695 21.8514 58.2444 21.9095C57.8018 21.9665 57.3875 21.918 57.1166 21.8082C56.8589 21.7039 56.8668 21.6167 56.8659 21.6089L54.8801 21.8471ZM61.1393 20.8187C60.7686 19.687 59.751 18.8944 58.7364 18.4034C57.69 17.8969 56.4429 17.608 55.301 17.608V19.608C56.1352 19.608 57.085 19.8261 57.8651 20.2036C58.6771 20.5966 59.1154 21.065 59.2387 21.4413L61.1393 20.8187ZM55.301 17.608C52.2653 17.608 49.3072 19.4746 48.7235 23.1303L50.6985 23.4457C51.1028 20.9134 53.0847 19.608 55.301 19.608V17.608ZM49.711 22.288H49.425V24.288H49.711V22.288ZM49.425 22.288C48.2747 22.288 47.333 23.2297 47.333 24.38H49.333C49.333 24.3614 49.3401 24.3386 49.3619 24.3169C49.3836 24.2951 49.4064 24.288 49.425 24.288V22.288ZM47.333 24.38C47.333 25.5303 48.2747 26.472 49.425 26.472V24.472C49.4064 24.472 49.3836 24.4649 49.3619 24.4431C49.3401 24.4214 49.333 24.3986 49.333 24.38H47.333ZM56.8186 25.472H57.8186V24.472H56.8186V25.472ZM60.3026 25.472V24.472H59.3026V25.472H60.3026ZM60.3806 23.288L59.3859 23.1851L59.2718 24.288H60.3806V23.288ZM63.0586 21.728L62.0646 21.8384L62.0657 21.8471L63.0586 21.728ZM67.3746 21.13L66.4242 21.4413L66.4284 21.4537L67.3746 21.13ZM56.8966 23.288V24.288H57.7496L57.884 23.4457L56.8966 23.288ZM56.6106 26.472H56.8186V24.472H56.6106V26.472ZM55.8186 25.472V26.564H57.8186V25.472H55.8186ZM55.8186 26.564C55.8186 27.2801 55.6671 27.7653 55.4826 28.3034C55.2954 28.8495 55.0386 29.5305 55.0386 30.438H57.0386C57.0386 29.9155 57.1717 29.5435 57.3745 28.9521C57.58 28.3527 57.8186 27.6159 57.8186 26.564H55.8186ZM55.0386 30.438C55.0386 30.8483 55.1158 31.2591 55.3184 31.6348C55.5244 32.0171 55.8273 32.3018 56.1809 32.5031C56.8414 32.8791 57.6952 32.972 58.5606 32.972V30.972C57.7619 30.972 57.3547 30.8699 57.1703 30.7649C57.1013 30.7257 57.0857 30.6984 57.0789 30.6858C57.0685 30.6667 57.0386 30.5997 57.0386 30.438H55.0386ZM58.5606 32.972C59.4271 32.972 60.2835 32.8786 60.9476 32.5063C61.3021 32.3075 61.6094 32.0253 61.8201 31.6432C62.0279 31.2664 62.1086 30.8529 62.1086 30.438H60.1086C60.1086 30.5951 60.0787 30.6593 60.0687 30.6774C60.0617 30.6902 60.044 30.72 59.9695 30.7617C59.7756 30.8704 59.358 30.972 58.5606 30.972V32.972ZM62.1086 30.438C62.1086 29.5242 61.8412 28.8387 61.6481 28.2938C61.4576 27.7559 61.3026 27.2745 61.3026 26.564H59.3026C59.3026 27.6215 59.5505 28.3621 59.763 28.9617C59.9729 29.5543 60.1086 29.9218 60.1086 30.438H62.1086ZM61.3026 26.564V25.472H59.3026V26.564H61.3026ZM60.3026 26.472H61.1346V24.472H60.3026V26.472ZM61.1346 26.472C62.3264 26.472 63.2266 25.5146 63.2266 24.38H61.2266C61.2266 24.4144 61.2142 24.4362 61.2016 24.449C61.1951 24.4557 61.1876 24.4608 61.179 24.4644C61.171 24.4678 61.1572 24.472 61.1346 24.472V26.472ZM63.2266 24.38C63.2266 23.2454 62.3264 22.288 61.1346 22.288V24.288C61.1572 24.288 61.171 24.2922 61.179 24.2956C61.1876 24.2992 61.1951 24.3043 61.2016 24.311C61.2142 24.3238 61.2266 24.3456 61.2266 24.38H63.2266ZM61.1346 22.288H60.3806V24.288H61.1346V22.288ZM61.3752 23.3909C61.4489 22.6794 61.5925 21.9386 61.798 21.4048C61.9021 21.1344 61.9986 20.98 62.0612 20.9093C62.1156 20.848 62.0639 20.934 61.9146 20.934V18.934C61.3102 18.934 60.8588 19.2507 60.5646 19.5827C60.2786 19.9053 60.0777 20.3066 59.9316 20.6862C59.6366 21.4524 59.4683 22.3886 59.3859 23.1851L61.3752 23.3909ZM61.9146 20.934C61.9801 20.934 61.9681 20.9442 61.9232 20.9233C61.8681 20.8976 61.8421 20.8627 61.8443 20.866C61.8548 20.8814 61.8945 20.9492 61.9406 21.1184C61.9861 21.2851 62.029 21.5175 62.0647 21.8384L64.0524 21.6176C63.972 20.894 63.8313 20.2322 63.4993 19.743C63.3162 19.4733 63.0741 19.2531 62.768 19.1105C62.472 18.9725 62.174 18.934 61.9146 18.934V20.934ZM62.0657 21.8471C62.1817 22.8143 62.8721 23.3869 63.5513 23.662C64.2172 23.9317 64.994 23.9822 65.6857 23.893C66.3693 23.8049 67.1148 23.561 67.6654 23.0937C67.9496 22.8525 68.2073 22.5287 68.343 22.1145C68.4824 21.6894 68.4694 21.2408 68.3207 20.8063L66.4284 21.4537C66.4488 21.5132 66.4349 21.5147 66.4425 21.4915C66.4466 21.4792 66.4416 21.5091 66.3712 21.5689C66.2125 21.7036 65.8805 21.8514 65.4299 21.9095C64.9874 21.9665 64.5731 21.918 64.3021 21.8082C64.0445 21.7039 64.0524 21.6167 64.0514 21.6089L62.0657 21.8471ZM68.3249 20.8187C67.9542 19.687 66.9365 18.8944 65.9219 18.4034C64.8756 17.8969 63.6284 17.608 62.4866 17.608V19.608C63.3207 19.608 64.2705 19.8261 65.0507 20.2036C65.8626 20.5966 66.301 21.065 66.4242 21.4413L68.3249 20.8187ZM62.4866 17.608C59.4508 17.608 56.4928 19.4746 55.9091 23.1303L57.884 23.4457C58.2884 20.9134 60.2703 19.608 62.4866 19.608V17.608ZM56.8966 22.288H56.6106V24.288H56.8966V22.288ZM56.6106 22.288C55.4603 22.288 54.5186 23.2297 54.5186 24.38H56.5186C56.5186 24.3614 56.5257 24.3386 56.5474 24.3169C56.5692 24.2951 56.592 24.288 56.6106 24.288V22.288ZM54.5186 24.38C54.5186 25.5303 55.4603 26.472 56.6106 26.472V24.472C56.592 24.472 56.5692 24.4649 56.5474 24.4431C56.5257 24.4214 56.5186 24.3986 56.5186 24.38H54.5186ZM72.3538 29.58L73.2181 30.0829L73.222 30.0761L72.3538 29.58ZM71.0538 28.982L70.1928 28.4733L70.1869 28.4833L70.1813 28.4934L71.0538 28.982ZM68.5578 29.346L67.6562 28.9133L67.1833 29.8986L68.2066 30.2823L68.5578 29.346ZM67.5178 28.722L66.8931 29.5029L68.319 30.6436L68.5121 28.8278L67.5178 28.722ZM67.7258 32.972C70.0479 32.972 72.1779 31.8707 73.2181 30.0829L71.4894 29.0771C70.8656 30.1493 69.4596 30.972 67.7258 30.972V32.972ZM73.222 30.0761C73.4677 29.6461 73.572 29.0995 73.3135 28.5781C73.0791 28.1052 72.6509 27.8717 72.3202 27.7697C71.9776 27.664 71.5963 27.65 71.2442 27.7326C70.9004 27.8133 70.4607 28.0199 70.1928 28.4733L71.9147 29.4907C71.8655 29.574 71.806 29.6236 71.7659 29.6491C71.7277 29.6735 71.7029 29.6793 71.701 29.6797C71.6982 29.6804 71.704 29.6789 71.7157 29.6793C71.7274 29.6797 71.7333 29.6816 71.7308 29.6808C71.7294 29.6804 71.7046 29.6729 71.6672 29.6454C71.6283 29.6167 71.5681 29.5602 71.5216 29.4664C71.4724 29.3671 71.4574 29.2635 71.4653 29.1778C71.4725 29.0992 71.4958 29.0659 71.4855 29.0839L73.222 30.0761ZM70.1813 28.4934C70.2101 28.442 70.2008 28.5271 69.9299 28.5624C69.6723 28.596 69.3052 28.5583 68.9089 28.4097L68.2066 30.2823C68.8503 30.5237 69.5492 30.629 70.1886 30.5456C70.8147 30.4639 71.5335 30.172 71.9263 29.4706L70.1813 28.4934ZM69.4593 29.7787C69.4539 29.79 69.4943 29.6975 69.8342 29.551C70.1799 29.402 70.5496 29.3068 71.0799 29.1325C71.5411 28.981 72.1296 28.7656 72.6037 28.3873C73.1326 27.9652 73.5098 27.3474 73.5098 26.512H71.5098C71.5098 26.6646 71.4709 26.7325 71.3563 26.824C71.1869 26.9591 70.9044 27.085 70.4556 27.2325C70.076 27.3572 69.4966 27.5187 69.0428 27.7143C68.5832 27.9123 67.9737 28.252 67.6562 28.9133L69.4593 29.7787ZM73.5098 26.512C73.5098 25.2904 72.6914 24.22 71.6915 23.5096C70.6571 22.7746 69.2585 22.288 67.7258 22.288V24.288C68.845 24.288 69.8384 24.6464 70.5331 25.1399C71.2622 25.658 71.5098 26.1996 71.5098 26.512H73.5098ZM67.7258 22.288C64.4836 22.288 61.5518 24.5297 61.5518 27.63H63.5518C63.5518 25.9463 65.2479 24.288 67.7258 24.288V22.288ZM61.5518 27.63C61.5518 30.7598 64.4877 32.972 67.7258 32.972V30.972C65.2438 30.972 63.5518 29.3362 63.5518 27.63H61.5518ZM67.7138 25.108C67.7138 25.1073 67.7138 25.1164 67.7109 25.137C67.7082 25.1575 67.7031 25.1856 67.6944 25.2225C67.6766 25.2978 67.6476 25.3931 67.6046 25.5122C67.5163 25.7566 67.3946 26.0334 67.2482 26.3682C66.9821 26.9769 66.6079 27.8217 66.5234 28.6162L68.5121 28.8278C68.5576 28.4003 68.7814 27.8541 69.0808 27.1693C69.2172 26.8574 69.3701 26.5118 69.4857 26.1915C69.5957 25.8868 69.7138 25.4976 69.7138 25.108H67.7138ZM68.1425 27.9411C67.7113 27.5962 67.3998 27.0695 67.3998 26.356H65.3998C65.3998 27.7225 66.0242 28.8078 66.8931 29.5029L68.1425 27.9411ZM67.3998 26.356C67.3998 26.0102 67.4907 25.8213 67.5641 25.7225C67.6414 25.6185 67.7396 25.5596 67.8322 25.5331C67.9403 25.5021 67.9856 25.5284 67.9523 25.5139C67.9301 25.5042 67.8686 25.4716 67.8096 25.3916C67.7449 25.304 67.7138 25.1996 67.7138 25.108H69.7138C69.7138 24.3846 69.2484 23.8973 68.7521 23.6808C68.2849 23.4769 67.7517 23.4757 67.2813 23.6104C66.2626 23.9023 65.3998 24.8556 65.3998 26.356H67.3998ZM82.9416 29.58L83.806 30.0829L83.8099 30.0761L82.9416 29.58ZM81.6416 28.982L80.7807 28.4733L80.7748 28.4833L80.7691 28.4934L81.6416 28.982ZM79.1456 29.346L78.2441 28.9133L77.7712 29.8986L78.7945 30.2823L79.1456 29.346ZM78.1056 28.722L77.481 29.5029L78.9069 30.6436L79.1 28.8278L78.1056 28.722ZM78.3136 32.972C80.6358 32.972 82.7658 31.8707 83.806 30.0829L82.0773 29.0771C81.4535 30.1493 80.0475 30.972 78.3136 30.972V32.972ZM83.8099 30.0761C84.0556 29.6461 84.1599 29.0995 83.9014 28.5781C83.667 28.1052 83.2388 27.8717 82.9081 27.7697C82.5654 27.664 82.1842 27.65 81.8321 27.7326C81.4882 27.8133 81.0486 28.0199 80.7807 28.4733L82.5026 29.4907C82.4534 29.574 82.3939 29.6236 82.3538 29.6491C82.3156 29.6735 82.2908 29.6793 82.2889 29.6797C82.2861 29.6804 82.2919 29.6789 82.3036 29.6793C82.3153 29.6797 82.3212 29.6816 82.3187 29.6808C82.3173 29.6804 82.2925 29.6729 82.2551 29.6454C82.2162 29.6167 82.156 29.5602 82.1095 29.4664C82.0603 29.3671 82.0453 29.2635 82.0532 29.1778C82.0604 29.0992 82.0837 29.0659 82.0734 29.0839L83.8099 30.0761ZM80.7691 28.4934C80.7979 28.442 80.7887 28.5271 80.5178 28.5624C80.2602 28.596 79.8931 28.5583 79.4968 28.4097L78.7945 30.2823C79.4382 30.5237 80.1371 30.629 80.7765 30.5456C81.4026 30.4639 82.1214 30.172 82.5142 29.4706L80.7691 28.4934ZM80.0472 29.7787C80.0418 29.79 80.0822 29.6975 80.4221 29.551C80.7678 29.402 81.1374 29.3068 81.6678 29.1325C82.129 28.981 82.7175 28.7656 83.1916 28.3873C83.7205 27.9652 84.0976 27.3474 84.0976 26.512H82.0976C82.0976 26.6646 82.0588 26.7325 81.9442 26.824C81.7748 26.9591 81.4923 27.085 81.0435 27.2325C80.6639 27.3572 80.0845 27.5187 79.6307 27.7143C79.1711 27.9123 78.5615 28.252 78.2441 28.9133L80.0472 29.7787ZM84.0976 26.512C84.0976 25.2904 83.2793 24.22 82.2794 23.5096C81.245 22.7746 79.8464 22.288 78.3136 22.288V24.288C79.4329 24.288 80.4263 24.6464 81.1209 25.1399C81.85 25.658 82.0976 26.1996 82.0976 26.512H84.0976ZM78.3136 22.288C75.0715 22.288 72.1396 24.5297 72.1396 27.63H74.1396C74.1396 25.9463 75.8358 24.288 78.3136 24.288V22.288ZM72.1396 27.63C72.1396 30.7598 75.0756 32.972 78.3136 32.972V30.972C75.8317 30.972 74.1396 29.3362 74.1396 27.63H72.1396ZM78.3016 25.108C78.3016 25.1073 78.3017 25.1164 78.2988 25.137C78.296 25.1575 78.291 25.1856 78.2823 25.2225C78.2645 25.2978 78.2355 25.3931 78.1925 25.5122C78.1042 25.7566 77.9825 26.0334 77.8361 26.3682C77.57 26.9769 77.1958 27.8217 77.1113 28.6162L79.1 28.8278C79.1455 28.4003 79.3693 27.8541 79.6687 27.1693C79.805 26.8574 79.9579 26.5118 80.0736 26.1915C80.1836 25.8868 80.3016 25.4976 80.3016 25.108H78.3016ZM78.7303 27.9411C78.2992 27.5962 77.9876 27.0695 77.9876 26.356H75.9876C75.9876 27.7225 76.6121 28.8078 77.481 29.5029L78.7303 27.9411ZM77.9876 26.356C77.9876 26.0102 78.0786 25.8213 78.152 25.7225C78.2293 25.6185 78.3275 25.5596 78.4201 25.5331C78.5282 25.5021 78.5735 25.5284 78.5402 25.5139C78.518 25.5042 78.4565 25.4716 78.3975 25.3916C78.3328 25.304 78.3016 25.1996 78.3016 25.108H80.3016C80.3016 24.3846 79.8363 23.8973 79.34 23.6808C78.8728 23.4769 78.3396 23.4757 77.8692 23.6104C76.8505 23.9023 75.9876 24.8556 75.9876 26.356H77.9876Z" fill="#1C193F"/>
</svg>
